<?xml version="1.0" encoding="UTF-8"?>
<svg width="146px" height="146px" viewBox="0 0 146 146" version="1.1" xmlns="http://www.w3.org/2000/svg" xmlns:xlink="http://www.w3.org/1999/xlink">
    <!-- Generator: Sketch 57.1 (83088) - https://sketch.com -->
    <title>logo</title>
    <desc>Created with Sketch.</desc>
    <g id="Page-1" stroke="none" stroke-width="1" fill="none" fill-rule="evenodd">
        <g id="logo" fill-rule="nonzero">
            <polygon id="Path" fill="#E20036" points="0 146 0 0 146 0 146 146"></polygon>
            <path d="M73.723,100.907 L50.427,78.171 L14.455,78.171 L73.723,20.238 L132.99,78.17 L97.018,78.17 L73.723,100.907 Z M58.577,73.957 C59.1083946,73.9659423 59.6389184,73.9105395 60.157,73.792 C60.585,73.677 60.947,73.512 61.227,73.298 C61.8680706,72.7646353 62.2415804,71.9759114 62.248,71.142 C62.248,70.565 62.083,70.072 61.754,69.66 C61.442,69.248 60.997,68.936 60.404,68.771 C60.849,68.541 61.194,68.261 61.424,67.882 C61.655,67.536 61.754,67.125 61.754,66.713 C61.7559941,66.25714 61.6242204,65.8107087 61.375,65.429 C61.1276095,65.0241198 60.7592658,64.7071973 60.322,64.523 C59.861,64.326 59.268,64.227 58.527,64.227 L54.857,64.227 L54.857,73.94 L58.577,73.957 Z M56.14,68.31 L56.14,65.38 L58.115,65.38 C58.6129605,65.3574693 59.1117001,65.4015252 59.598,65.511 C59.872,65.595 60.107,65.776 60.256,66.021 C60.421,66.252 60.486,66.548 60.486,66.878 C60.486,67.207 60.404,67.487 60.239,67.701 C60.075,67.948 59.828,68.112 59.499,68.195 C59.252,68.277 58.84,68.31 58.264,68.31 L56.14,68.31 Z M56.156,72.804 L56.156,69.446 L58.412,69.446 C59.022,69.446 59.515,69.512 59.844,69.611 C60.16,69.711 60.432,69.914 60.618,70.187 C60.808,70.463 60.905,70.791 60.898,71.125 C60.898,71.438 60.832,71.718 60.701,71.948 C60.5867573,72.169741 60.4160052,72.3573959 60.206,72.492 C60.009,72.623 59.762,72.706 59.466,72.755 C59.301,72.788 59.005,72.788 58.593,72.788 L56.156,72.804 Z M64.322,73.957 L65.376,70.993 L69.492,70.993 L70.612,73.94 L72.092,73.94 L68.109,64.227 L66.693,64.227 L62.94,73.94 L64.322,73.957 Z M65.754,69.957 L66.824,67.108 C67.039,66.499 67.236,65.873 67.368,65.231 C67.533,65.775 67.763,66.45 68.06,67.273 L69.08,69.956 L65.754,69.957 Z M80.077,73.957 L80.077,72.804 L73.821,72.804 L74.414,72.113 L79.896,65.38 L79.896,64.227 L72.916,64.227 L72.916,65.38 L78.366,65.38 C78.036,65.709 77.706,66.087 77.345,66.532 L72.34,72.755 L72.34,73.94 L80.077,73.957 Z M81.658,73.94 L82.975,73.94 L82.975,64.227 L81.675,64.227 L81.658,73.94 Z M84.818,70.829 C84.835,71.471 85.033,72.047 85.362,72.574 C85.702,73.09 86.19,73.491 86.762,73.726 C88.0800884,74.2394924 89.5429116,74.2394924 90.861,73.726 C91.421,73.479 91.848,73.117 92.145,72.656 C92.441,72.196 92.589,71.718 92.589,71.208 C92.589,70.681 92.458,70.22 92.178,69.825 C91.914,69.429 91.486,69.1 90.926,68.837 C90.531,68.656 89.807,68.458 88.77,68.227 C87.716,67.981 87.058,67.75 86.81,67.537 C86.5646598,67.3136562 86.4270039,66.9957368 86.432,66.664 C86.442,66.257 86.642,65.878 86.975,65.643 C87.321,65.347 87.897,65.215 88.688,65.215 C89.428,65.215 90.005,65.363 90.4,65.675 C90.8,66.033 91.038,66.539 91.058,67.075 L92.31,66.976 C92.3036585,65.8440721 91.6043755,64.8316595 90.548,64.425 C89.9415946,64.1790165 89.2923592,64.0559677 88.638,64.063 C88.0244048,64.056252 87.4152713,64.1679605 86.844,64.392 C86.301,64.622 85.889,64.952 85.609,65.38 C85.329,65.808 85.198,66.252 85.198,66.746 C85.198,67.191 85.313,67.602 85.543,67.964 C85.803,68.353 86.161,68.665 86.581,68.87 C87.181,69.142 87.811,69.346 88.457,69.479 C89.363,69.693 89.939,69.841 90.203,69.939 C90.614,70.104 90.911,70.286 91.075,70.516 C91.26,70.744 91.359,71.029 91.355,71.323 C91.3465459,71.6218649 91.2428384,71.9102138 91.059,72.146 C90.894,72.393 90.614,72.59 90.235,72.755 C89.8110176,72.8993259 89.365866,72.9716588 88.918,72.969 C88.375,72.969 87.865,72.87 87.437,72.673 C86.975,72.475 86.647,72.245 86.449,71.915 C86.235,71.603 86.103,71.208 86.037,70.714 L84.818,70.829 Z M100.821,63.009 L106.419,63.009 L106.419,72.887 L120.05,72.887 L73.723,27.679 L27.527,72.887 L41.027,72.887 L41.027,63.009 L46.74,63.009 L73.723,36.619 L100.821,63.009 Z M97.018,63.009 L74.003,40.537 L74.003,48.39 L88.984,63.009 L97.018,63.009 Z M73.443,49.344 L59.417,63.01 L73.443,63.01 L73.443,49.344 Z M50.428,75.324 L73.443,97.796 L73.443,89.943 L58.462,75.323 L50.428,75.324 Z M74.003,88.988 L88.16,75.323 L74.003,75.323 L74.003,88.988 Z" id="Shape" fill="#FFFFFF"></path>
            <path d="M118.532041,126.789127 L124,126.789127 L124,129.236485 L115.973325,129.236485 L115.973325,116.259415 L123.907623,116.259415 L123.907623,118.706773 L118.532041,118.706773 L118.532041,121.469225 L123.444473,121.469225 L123.444473,123.878619 L118.532041,123.878619 L118.532041,126.789127 Z M113.451306,118.706773 L108.260478,118.706773 L108.260478,121.784319 L113.30325,121.784319 L113.30325,124.230411 L108.260478,124.230411 L108.260478,129.236485 L105.703027,129.236485 L105.703027,116.259415 L113.451306,116.259415 L113.451306,118.706773 Z M100.085746,116.259415 L102.643197,116.259415 L102.643197,129.236485 L100.085746,129.236485 L100.085746,116.259415 Z M93.0410508,126.789127 L97.9901802,126.789127 L97.9901802,129.236485 L90.4823345,129.236485 L90.4823345,116.259415 L93.0410508,116.259415 L93.0410508,126.789127 Z M83.307299,116.259415 L78.8580178,124.174732 L78.8580178,129.236485 L76.3182831,129.236485 L76.3182831,124.174732 L71.8879834,116.259415 L74.77951,116.259415 L77.5976412,121.67296 L80.4157724,116.259415 L83.307299,116.259415 Z M61.8024398,125.797024 C62.6059931,126.59425 63.6006277,126.992863 64.7876088,126.992863 C65.9733246,126.992863 66.9692245,126.59425 67.7715125,125.797024 C68.5750658,124.999798 68.9774752,123.983651 68.9774752,122.747317 C68.9774752,121.512249 68.5750658,120.492306 67.7715125,119.688753 C66.9692245,118.885199 65.97459,118.484055 64.7876088,118.484055 C63.6006277,118.484055 62.6059931,118.885199 61.8024398,119.688753 C60.9988864,120.492306 60.5977425,121.510984 60.5977425,122.747317 C60.5977425,123.983651 60.9988864,124.999798 61.8024398,125.797024 Z M69.5697003,127.540798 C68.2599717,128.844199 66.6655193,129.4959 64.7863434,129.4959 C62.9084329,129.4959 61.3177769,128.844199 60.0131099,127.540798 C58.7097084,126.237396 58.0580077,124.639148 58.0580077,122.747317 C58.0580077,120.856752 58.7097084,119.259769 60.0131099,117.955102 C61.3165114,116.651701 62.9084329,116 64.7876088,116 C66.6655193,116 68.2599717,116.651701 69.5709658,117.955102 C70.8806945,119.258504 71.5349261,120.856752 71.5349261,122.747317 C71.5349261,124.639148 70.8806945,126.236131 69.5697003,127.540798 L69.5697003,127.540798 Z M51.1423871,129.4959 C49.1037659,129.4959 47.675086,128.673365 46.8601438,127.030826 L49.0658028,125.769184 C49.4745394,126.585392 50.1667342,126.992863 51.1423871,126.992863 C51.8219275,126.992863 52.3293683,126.832152 52.6621786,126.511996 C52.9962543,126.18931 53.1632922,125.751468 53.1632922,125.19594 L53.1632922,116.259415 L55.7030269,116.259415 L55.7030269,125.194675 C55.7030269,126.555021 55.2765742,127.611662 54.4249342,128.364598 C53.5707633,129.118799 52.4774246,129.4959 51.1423871,129.4959 Z M41.9844098,116.259415 L44.5431261,116.259415 L44.5431261,129.236485 L42.5956165,129.236485 L37.034015,121.302187 L37.034015,129.236485 L34.4778295,129.236485 L34.4778295,116.259415 L36.4240737,116.259415 L41.9856752,124.174732 L41.9844098,116.259415 Z M26.5599818,126.789127 L32.0292063,126.789127 L32.0292063,129.236485 L24,129.236485 L24,116.259415 L31.9342984,116.259415 L31.9342984,118.706773 L26.5587163,118.706773 L26.5587163,121.469225 L31.471148,121.469225 L31.471148,123.878619 L26.5587163,123.878619 L26.5599818,126.789127 Z" id="Shape" fill="#FFFFFF"></path>
        </g>
    </g>
</svg>