<?xml version="1.0" encoding="utf-8"?>
<svg id="master-artboard" viewBox="0 0 371.1645812988281 73.17948913574219" xmlns="http://www.w3.org/2000/svg" width="371.1645812988281px" height="73.17948913574219px" version="1.1" style="shape-rendering:geometricPrecision; text-rendering:geometricPrecision; image-rendering:optimizeQuality; fill-rule:evenodd; clip-rule:evenodd"><defs><style id="ee-google-fonts">@import url(https://fonts.googleapis.com/css?family=Montserrat:700,400);</style></defs><rect id="ee-background" x="0" y="0" width="371.1645812988281" height="73.17948913574219" style="fill: white; fill-opacity: 0; pointer-events: none;"/>
 
 <metadata id="CorelCorpID_0Corel-Layer"/>
<path d="M 175.48306274414062 315.20001220703125 L 173.92306518554688 311.58001708984375 L 166.883056640625 311.58001708984375 L 165.32305908203125 315.20001220703125 L 161.3430633544922 315.20001220703125 L 168.5930633544922 298.4200134277344 L 172.2130584716797 298.4200134277344 L 179.4630584716797 315.20001220703125 L 175.48306274414062 315.20001220703125 M 170.41305541992188 303.4200134277344 L 168.3030548095703 308.2900085449219 L 172.5030517578125 308.2900085449219 L 170.41305541992188 303.4200134277344 ZM 195.01304626464844 303.9900207519531 C 195.01304626464844 306.6766662597656 193.94970703125 308.413330078125 191.8230438232422 309.20001220703125 L 196.0730438232422 315.20001220703125 L 191.46304321289062 315.20001220703125 L 187.7430419921875 309.8500061035156 L 185.15304565429688 309.8500061035156 L 185.15304565429688 315.20001220703125 L 181.40304565429688 315.20001220703125 L 181.40304565429688 298.4200134277344 L 187.76304626464844 298.4200134277344 C 190.3763885498047 298.4200134277344 192.23638916015625 298.8600158691406 193.34304809570312 299.7400207519531 C 194.4563751220703 300.6200256347656 195.01304626464844 302.03668212890625 195.01304626464844 303.9900207519531 M 187.88304138183594 306.6100158691406 C 189.16305541992188 306.6100158691406 190.036376953125 306.4000244140625 190.5030517578125 305.9800109863281 C 190.96971130371094 305.5666809082031 191.2030487060547 304.90667724609375 191.2030487060547 304 C 191.2030487060547 303.1000061035156 190.96304321289062 302.4800109863281 190.48304748535156 302.1400146484375 C 190.0030517578125 301.8066711425781 189.16305541992188 301.6400146484375 187.96304321289062 301.6400146484375 L 185.15304565429688 301.6400146484375 L 185.15304565429688 306.6100158691406 L 187.88304138183594 306.6100158691406 ZM 205.6250457763672 301.6600036621094 L 205.6250457763672 315.20001220703125 L 201.8750457763672 315.20001220703125 L 201.8750457763672 301.6600036621094 L 197.1250457763672 301.6600036621094 L 197.1250457763672 298.4200134277344 L 210.3750457763672 298.4200134277344 L 210.3750457763672 301.6600036621094 L 205.6250457763672 301.6600036621094 ZM 213.10704040527344 298.4200134277344 L 216.85704040527344 298.4200134277344 L 216.85704040527344 315.20001220703125 L 213.10704040527344 315.20001220703125 L 213.10704040527344 298.4200134277344 ZM 228.6890411376953 311.8900146484375 C 230.52903747558594 311.8900146484375 232.03236389160156 311.1600036621094 233.19903564453125 309.70001220703125 L 235.59902954101562 312.1800231933594 C 233.69236755371094 314.32000732421875 231.44903564453125 315.3900146484375 228.86903381347656 315.3900146484375 C 226.28236389160156 315.3900146484375 224.15237426757812 314.5733337402344 222.47903442382812 312.94000244140625 C 220.81236267089844 311.3133544921875 219.97903442382812 309.25335693359375 219.97903442382812 306.760009765625 C 219.97903442382812 304.2733459472656 220.82904052734375 302.20001220703125 222.52903747558594 300.5400085449219 C 224.23570251464844 298.87335205078125 226.31903076171875 298.0400085449219 228.77903747558594 298.0400085449219 C 231.53236389160156 298.0400085449219 233.8390350341797 299.086669921875 235.69903564453125 301.1800231933594 L 233.36903381347656 303.82000732421875 C 232.182373046875 302.35333251953125 230.7090301513672 301.6200256347656 228.94903564453125 301.6200256347656 C 227.54237365722656 301.6200256347656 226.3390350341797 302.08001708984375 225.3390350341797 303 C 224.3390350341797 303.9200134277344 223.8390350341797 305.1600036621094 223.8390350341797 306.7200012207031 C 223.8390350341797 308.2799987792969 224.3123779296875 309.5299987792969 225.259033203125 310.4700012207031 C 226.19903564453125 311.41668701171875 227.34237670898438 311.8900146484375 228.6890411376953 311.8900146484375 ZM 238.54702758789062 315.20001220703125 L 238.54702758789062 298.4200134277344 L 242.29702758789062 298.4200134277344 L 242.29702758789062 311.8600158691406 L 249.44703674316406 311.8600158691406 L 249.44703674316406 315.20001220703125 L 238.54702758789062 315.20001220703125 ZM 264.2790222167969 298.4200134277344 L 264.2790222167969 301.760009765625 L 255.92901611328125 301.760009765625 L 255.92901611328125 305.2200012207031 L 263.43902587890625 305.2200012207031 L 263.43902587890625 308.4100036621094 L 255.92901611328125 308.4100036621094 L 255.92901611328125 311.8900146484375 L 264.5390319824219 311.8900146484375 L 264.5390319824219 315.20001220703125 L 252.17901611328125 315.20001220703125 L 252.17901611328125 298.4200134277344 L 264.2790222167969 298.4200134277344 Z" transform="matrix(3.5168709754943848, 0, 0, 3.5168709754943848, -563.7303466796875, -1041.917724609375)" style="fill: rgb(226, 226, 226); white-space: pre; color: rgb(51, 51, 51);"/></svg>