<?xml version="1.0" encoding="utf-8"?>
<svg id="master-artboard" viewBox="0 0 31.247833251953125 301.9460754394531" version="1.1" xmlns="http://www.w3.org/2000/svg" x="0px" y="0px" style="enable-background:new 0 0 336 235.2;" width="31.247833251953125px" height="301.9460754394531px"><defs><style id="ee-google-fonts">@import url(https://fonts.googleapis.com/css?family=Montserrat:700,400);</style></defs><rect id="ee-background" x="0" y="0" width="31.247833251953125" height="301.9460754394531" style="fill: white; fill-opacity: 0; pointer-events: none;"/>














<path d="M 334.1046142578125 207.1999969482422 L 332.54461669921875 203.5800018310547 L 325.504638671875 203.5800018310547 L 323.9446105957031 207.1999969482422 L 319.9646301269531 207.1999969482422 L 327.2146301269531 190.4199981689453 L 330.8346252441406 190.4199981689453 L 338.0846252441406 207.1999969482422 L 334.1046142578125 207.1999969482422 M 329.0346374511719 195.4199981689453 L 326.92462158203125 200.2899932861328 L 331.1246337890625 200.2899932861328 L 329.0346374511719 195.4199981689453 ZM 353.63458251953125 195.989990234375 C 353.63458251953125 198.67666625976562 352.57122802734375 200.413330078125 350.444580078125 201.1999969482422 L 354.694580078125 207.1999969482422 L 350.0845642089844 207.1999969482422 L 346.36456298828125 201.84999084472656 L 343.7745666503906 201.84999084472656 L 343.7745666503906 207.1999969482422 L 340.0245666503906 207.1999969482422 L 340.0245666503906 190.4199981689453 L 346.38458251953125 190.4199981689453 C 348.9978942871094 190.4199981689453 350.85791015625 190.86000061035156 351.9645690917969 191.739990234375 C 353.0779113769531 192.6199951171875 353.63458251953125 194.0366668701172 353.63458251953125 195.989990234375 M 346.50457763671875 198.61000061035156 C 347.7845764160156 198.61000061035156 348.65789794921875 198.39999389648438 349.12457275390625 197.97999572753906 C 349.59124755859375 197.56666564941406 349.8245544433594 196.9066619873047 349.8245544433594 196 C 349.8245544433594 195.09999084472656 349.5845642089844 194.47999572753906 349.1045837402344 194.13999938964844 C 348.62457275390625 193.80667114257812 347.7845764160156 193.63999938964844 346.5845642089844 193.63999938964844 L 343.7745666503906 193.63999938964844 L 343.7745666503906 198.61000061035156 L 346.50457763671875 198.61000061035156 ZM 364.2464904785156 193.66000366210938 L 364.2464904785156 207.1999969482422 L 360.4964904785156 207.1999969482422 L 360.4964904785156 193.66000366210938 L 355.7464904785156 193.66000366210938 L 355.7464904785156 190.4199981689453 L 368.9964904785156 190.4199981689453 L 368.9964904785156 193.66000366210938 L 364.2464904785156 193.66000366210938 ZM 371.7284240722656 190.4199981689453 L 375.4784240722656 190.4199981689453 L 375.4784240722656 207.1999969482422 L 371.7284240722656 207.1999969482422 L 371.7284240722656 190.4199981689453 ZM 387.3103942871094 203.88999938964844 C 389.150390625 203.88999938964844 390.65374755859375 203.16000366210938 391.8204040527344 201.6999969482422 L 394.22039794921875 204.17999267578125 C 392.3137512207031 206.3199920654297 390.0704040527344 207.38999938964844 387.49041748046875 207.38999938964844 C 384.90374755859375 207.38999938964844 382.77374267578125 206.57333374023438 381.10040283203125 204.94000244140625 C 379.4337463378906 203.31332397460938 378.60040283203125 201.25332641601562 378.60040283203125 198.75999450683594 C 378.60040283203125 196.27333068847656 379.4504089355469 194.1999969482422 381.150390625 192.5399932861328 C 382.8570861816406 190.8733367919922 384.9403991699219 190.0399932861328 387.400390625 190.0399932861328 C 390.15374755859375 190.0399932861328 392.4604187011719 191.086669921875 394.3204040527344 193.17999267578125 L 391.99041748046875 195.8199920654297 C 390.8037414550781 194.35333251953125 389.3304138183594 193.6199951171875 387.5704040527344 193.6199951171875 C 386.1637268066406 193.6199951171875 384.9604187011719 194.0800018310547 383.9604187011719 195 C 382.9604187011719 195.9199981689453 382.4604187011719 197.16000366210938 382.4604187011719 198.72000122070312 C 382.4604187011719 200.27999877929688 382.9337463378906 201.52999877929688 383.8804016113281 202.47000122070312 C 384.8204040527344 203.41665649414062 385.9637451171875 203.88999938964844 387.3103942871094 203.88999938964844 ZM 397.1683349609375 207.1999969482422 L 397.1683349609375 190.4199981689453 L 400.9183349609375 190.4199981689453 L 400.9183349609375 203.86000061035156 L 408.0683288574219 203.86000061035156 L 408.0683288574219 207.1999969482422 L 397.1683349609375 207.1999969482422 ZM 422.9002685546875 190.4199981689453 L 422.9002685546875 193.75999450683594 L 414.5502624511719 193.75999450683594 L 414.5502624511719 197.22000122070312 L 422.0602722167969 197.22000122070312 L 422.0602722167969 200.41000366210938 L 414.5502624511719 200.41000366210938 L 414.5502624511719 203.88999938964844 L 423.1602783203125 203.88999938964844 L 423.1602783203125 207.1999969482422 L 410.8002624511719 207.1999969482422 L 410.8002624511719 190.4199981689453 L 422.9002685546875 190.4199981689453 Z" transform="matrix(-2.1818055984113016e-7, -2.8424925804138184, 2.8424925804138184, -2.1818055984113016e-7, -563.0463256835938, 1209.4102783203125)" style="fill: rgb(49, 49, 49); white-space: pre; color: rgb(51, 51, 51);"/></svg>