<?xml version="1.0" encoding="utf-8"?>
<svg id="master-artboard" viewBox="0 0 660 660" version="1.1" xmlns="http://www.w3.org/2000/svg" x="0px" y="0px" style="enable-background:new 0 0 1400 980;" width="660px" height="660px" xmlns:xlink="http://www.w3.org/1999/xlink"><rect id="ee-background" x="0" y="0" width="660" height="660" style="fill: white; fill-opacity: 0; pointer-events: none;"/><defs><style id="ee-google-fonts">@import url(https://fonts.googleapis.com/css?family=Fjalla+One:400|Roboto:100,100italic,300,300italic,400,400italic,500,500italic,700,700italic,900,900italic);</style><path d="M324.34 4.03L326.5 4.17L328.66 4.37L330.82 4.62L332.97 4.93L335.12 5.29L337.25 5.71L339.38 6.19L341.5 6.72L343.61 7.31L345.7 7.95L347.78 8.65L349.85 9.41L351.9 10.22L353.93 11.08L355.95 12.01L357.94 12.99L359.92 14.02L361.88 15.11L564.8 132.27L566.72 133.42L568.61 134.61L570.46 135.85L572.26 137.14L574.03 138.47L575.76 139.84L577.45 141.25L579.09 142.7L580.7 144.19L582.26 145.72L583.78 147.29L585.25 148.9L586.69 150.54L588.07 152.22L589.42 153.92L590.71 155.67L591.96 157.44L593.17 159.25L594.32 161.08L595.43 162.95L596.49 164.84L597.5 166.76L598.46 168.7L599.37 170.67L600.23 172.67L601.04 174.68L601.8 176.72L602.51 178.78L603.16 180.86L603.76 182.96L604.3 185.08L604.79 187.22L605.23 189.37L605.6 191.54L605.93 193.72L606.19 195.91L606.4 198.12L606.55 200.34L606.64 202.57L606.68 204.81L606.68 439.12L606.64 441.36L606.55 443.59L606.4 445.81L606.19 448.01L605.93 450.21L605.6 452.39L605.23 454.56L604.79 456.71L604.3 458.85L603.76 460.96L603.16 463.06L602.5 465.14L601.8 467.2L601.04 469.24L600.23 471.26L599.37 473.25L598.46 475.22L597.5 477.17L596.49 479.09L595.43 480.98L594.32 482.84L593.16 484.68L591.96 486.48L590.71 488.26L589.41 490L588.07 491.71L586.68 493.39L585.25 495.03L583.78 496.63L582.26 498.2L580.7 499.73L579.09 501.22L577.44 502.67L575.76 504.09L574.03 505.46L572.26 506.78L570.45 508.07L568.61 509.31L566.72 510.5L564.8 511.65L361.88 628.81L359.92 629.9L357.94 630.94L355.95 631.92L353.93 632.84L351.9 633.71L349.85 634.52L347.78 635.27L345.7 635.97L343.6 636.62L341.5 637.2L339.38 637.73L337.25 638.21L335.12 638.63L332.97 638.99L330.82 639.3L328.66 639.55L326.5 639.75L324.34 639.89L322.17 639.97L320 640L317.83 639.97L315.66 639.89L313.5 639.75L311.34 639.55L309.18 639.3L307.03 638.99L304.88 638.63L302.75 638.21L300.62 637.73L298.5 637.2L296.4 636.62L294.3 635.97L292.22 635.27L290.15 634.52L288.1 633.71L286.07 632.84L284.05 631.92L282.06 630.94L280.08 629.9L278.12 628.81L277.79 628.62L276.8 628.04L275.19 627.12L272.99 625.85L270.24 624.26L266.96 622.37L263.19 620.19L258.97 617.75L254.32 615.07L249.27 612.15L243.86 609.03L238.13 605.72L232.09 602.24L225.8 598.6L219.27 594.83L212.54 590.94L205.64 586.96L198.61 582.9L191.48 578.78L184.27 574.62L177.03 570.44L169.78 566.26L162.56 562.09L155.39 557.95L148.32 553.87L141.38 549.86L134.58 545.94L127.98 542.12L121.6 538.44L115.47 534.9L109.62 531.53L104.1 528.33L98.92 525.35L94.12 522.58L89.74 520.05L85.81 517.78L82.36 515.78L79.42 514.09L77.02 512.7L75.2 511.65L73.28 510.5L71.39 509.31L69.55 508.07L67.74 506.78L65.97 505.46L64.24 504.09L62.56 502.67L60.91 501.22L59.3 499.73L57.74 498.2L56.22 496.63L54.75 495.03L53.32 493.39L51.93 491.71L50.59 490L49.29 488.26L48.04 486.48L46.84 484.68L45.68 482.84L44.57 480.98L43.51 479.09L42.5 477.17L41.54 475.22L40.63 473.25L39.77 471.26L38.96 469.24L38.2 467.2L37.5 465.14L36.84 463.06L36.24 460.96L35.7 458.85L35.21 456.71L34.77 454.56L34.4 452.39L34.07 450.21L33.81 448.01L33.6 445.81L33.45 443.59L33.36 441.36L33.32 439.12L33.32 204.8L33.36 202.56L33.45 200.33L33.6 198.11L33.81 195.91L34.07 193.71L34.4 191.53L34.77 189.36L35.21 187.21L35.7 185.08L36.24 182.96L36.84 180.86L37.5 178.78L38.2 176.72L38.96 174.68L39.77 172.66L40.63 170.67L41.54 168.7L42.5 166.75L43.51 164.83L44.57 162.94L45.68 161.08L46.84 159.24L48.04 157.44L49.29 155.66L50.59 153.92L51.93 152.21L53.32 150.54L54.75 148.9L56.22 147.29L57.74 145.72L59.3 144.19L60.91 142.7L62.56 141.25L64.24 139.84L65.97 138.46L67.74 137.14L69.55 135.85L71.39 134.61L73.28 133.42L75.2 132.27L278.12 15.11L280.08 14.02L282.06 12.99L284.05 12.01L286.07 11.08L288.1 10.22L290.15 9.41L292.22 8.65L294.3 7.95L296.39 7.31L298.5 6.72L300.62 6.19L302.75 5.71L304.88 5.29L307.03 4.93L309.18 4.62L311.34 4.37L313.5 4.17L315.66 4.03L317.83 3.95L320 3.92L322.17 3.95L324.34 4.03ZM316.63 22.65L314.95 22.76L313.27 22.91L311.59 23.1L309.92 23.34L308.25 23.63L306.59 23.95L304.93 24.32L303.29 24.73L301.65 25.19L300.02 25.69L298.4 26.23L296.8 26.82L295.2 27.45L293.62 28.12L292.05 28.84L290.5 29.6L288.96 30.41L287.44 31.25L84.52 148.41L83.02 149.3L81.56 150.23L80.12 151.19L78.72 152.19L77.34 153.22L76 154.29L74.69 155.39L73.41 156.52L72.16 157.68L70.95 158.87L69.77 160.09L68.62 161.33L67.51 162.61L66.43 163.91L65.39 165.24L64.38 166.6L63.41 167.98L62.47 169.38L61.57 170.81L60.71 172.26L59.89 173.73L59.1 175.22L58.35 176.73L57.64 178.26L56.97 179.81L56.34 181.38L55.76 182.96L55.21 184.57L54.7 186.18L54.23 187.82L53.81 189.46L53.43 191.12L53.09 192.8L52.8 194.48L52.54 196.18L52.34 197.88L52.17 199.6L52.06 201.32L51.98 203.06L51.96 204.8L51.96 439.11L51.98 440.85L52.06 442.59L52.17 444.31L52.34 446.03L52.54 447.74L52.79 449.43L53.09 451.12L53.43 452.79L53.81 454.45L54.23 456.1L54.7 457.73L55.2 459.35L55.75 460.95L56.34 462.54L56.97 464.1L57.64 465.65L58.35 467.19L59.1 468.7L59.88 470.19L60.71 471.66L61.57 473.11L62.47 474.54L63.4 475.94L64.37 477.32L65.38 478.68L66.43 480.01L67.5 481.31L68.62 482.58L69.77 483.83L70.95 485.05L72.16 486.24L73.41 487.4L74.69 488.53L76 489.63L77.34 490.7L78.72 491.73L80.12 492.73L81.56 493.69L83.02 494.62L84.52 495.52L287.44 612.67L288.96 613.52L290.5 614.32L292.05 615.08L293.62 615.8L295.2 616.47L296.8 617.1L298.4 617.69L300.02 618.23L301.65 618.73L303.29 619.19L304.93 619.6L306.59 619.97L308.25 620.3L309.92 620.58L311.59 620.82L313.27 621.01L314.95 621.17L316.63 621.27L318.31 621.34L320 621.36L321.69 621.34L323.37 621.27L325.05 621.17L326.73 621.01L328.41 620.82L330.08 620.58L331.75 620.3L333.41 619.97L335.07 619.6L336.71 619.19L338.35 618.73L339.98 618.23L341.6 617.69L343.2 617.1L344.8 616.47L346.38 615.8L347.95 615.08L349.5 614.32L351.04 613.52L352.56 612.67L555.48 495.52L556.98 494.62L558.44 493.69L559.88 492.73L561.28 491.73L562.66 490.7L564 489.63L565.31 488.53L566.59 487.4L567.84 486.24L569.05 485.05L570.23 483.83L571.38 482.59L572.49 481.31L573.57 480.01L574.61 478.68L575.62 477.32L576.59 475.95L577.53 474.54L578.43 473.12L579.29 471.67L580.11 470.2L580.9 468.7L581.65 467.19L582.36 465.66L583.03 464.11L583.66 462.54L584.24 460.96L584.79 459.36L585.3 457.74L585.77 456.11L586.19 454.46L586.57 452.8L586.91 451.13L587.2 449.44L587.46 447.75L587.66 446.04L587.83 444.32L587.94 442.6L588.02 440.86L588.04 439.12L588.04 204.8L588.02 203.06L587.94 201.33L587.83 199.6L587.66 197.89L587.46 196.18L587.21 194.48L586.91 192.8L586.57 191.13L586.19 189.47L585.77 187.82L585.3 186.19L584.79 184.57L584.25 182.97L583.66 181.38L583.03 179.81L582.36 178.26L581.65 176.73L580.9 175.22L580.12 173.73L579.29 172.26L578.43 170.81L577.53 169.38L576.6 167.98L575.62 166.6L574.62 165.24L573.57 163.91L572.49 162.61L571.38 161.34L570.23 160.09L569.05 158.87L567.84 157.68L566.59 156.52L565.31 155.39L564 154.29L562.66 153.22L561.28 152.19L559.88 151.19L558.44 150.23L556.98 149.3L555.48 148.41L352.56 31.25L351.04 30.41L349.5 29.6L347.95 28.84L346.38 28.12L344.8 27.45L343.2 26.82L341.6 26.23L339.98 25.69L338.35 25.19L336.71 24.73L335.07 24.32L333.41 23.95L331.75 23.63L330.08 23.34L328.41 23.1L326.73 22.91L325.05 22.76L323.37 22.65L321.69 22.58L320 22.56L318.31 22.58L316.63 22.65Z" id="adEqISoNx"/></defs>







<path d="M 529.200012 100.900002 L 873.200012 100.900002" class="st4" style="fill: rgb(255, 255, 255);" transform="matrix(1, 0, 0, 1, -19.827693939208984, -95.17294311523438)"/>



































<g transform="matrix(1, 0, 0, 1, -19.827693939208984, -95.17294311523438)">
		<path class="st13" d="M448.4,599.9" style="fill: rgb(223, 243, 251);"/>
	</g>





















































<g transform="matrix(1.013611316680908, 0, 0, 1.013611316680908, 7.840802176196803, 4.317984095911015)"><g><g><g><use opacity="1" fill="#ffd940" fill-opacity="1" xlink:href="#adEqISoNx"/><g><use opacity="1" fill-opacity="0" stroke="#000000" stroke-width="1" stroke-opacity="0" xlink:href="#adEqISoNx"/></g></g></g></g></g><g transform="matrix(0.5252591967582703, 0, 0, 0.5252591967582703, 199.0901031494143, 209.55153292275293)"><path d="m55.261719 28.761719c-12.125 0-21.988281 9.867187-21.988281 21.988281 0 12.125 9.863281 21.992188 21.988281 21.992188s21.992187-9.867188 21.992187-21.992188c0-12.121094-9.867187-21.988281-21.992187-21.988281zm0 28.992187c-3.859375 0-7.003907-3.140625-7.003907-7.003906 0-3.859375 3.144532-7 7.003907-7 3.863281 0 7.003906 3.140625 7.003906 7 0 3.863281-3.140625 7.003906-7.003906 7.003906zm0 0" style="fill: rgb(255, 255, 255);"/><path d="m111.25 28.761719c-12.125 0-21.992188 9.867187-21.992188 21.988281 0 12.125 9.867188 21.992188 21.992188 21.992188s21.988281-9.867188 21.988281-21.992188c0-12.121094-9.863281-21.988281-21.988281-21.988281zm0 28.992187c-3.863281 0-7.003906-3.140625-7.003906-7.003906 0-3.859375 3.140625-7 7.003906-7 3.859375 0 7.003906 3.140625 7.003906 7 0 3.863281-3.144531 7.003906-7.003906 7.003906zm0 0" style="fill: rgb(255, 255, 255);"/><path d="m167.234375 28.761719c-12.125 0-21.988281 9.867187-21.988281 21.988281 0 12.125 9.863281 21.992188 21.988281 21.992188s21.992187-9.867188 21.992187-21.992188c0-12.121094-9.867187-21.988281-21.992187-21.988281zm0 28.992187c-3.859375 0-7.003906-3.140625-7.003906-7.003906 0-3.859375 3.144531-7 7.003906-7 3.863281 0 7.003906 3.140625 7.003906 7 0 3.863281-3.140625 7.003906-7.003906 7.003906zm0 0" style="fill: rgb(255, 255, 255);"/><path d="m503.9375 147.824219c4.140625 0 7.496094-3.355469 7.496094-7.496094l.566406-107.351563c0-18.183593-14.792969-32.976562-32.976562-32.976562h-446.042969c-18.183594 0-32.980469 14.796875-32.980469 32.980469v362.566406c0 16.480469 12.152344 30.175781 27.964844 32.597656 1.636718.253907 3.3125.382813 5.015625.382813h145.804687v26.875h-22.625c-15.089844 0-27.371094 12.277344-27.371094 27.367187v16.191407c0 6.886718 5.601563 12.488281 12.488282 12.488281h35.734375c4.136719 0 7.492187-3.355469 7.492187-7.496094 0-4.136719-3.355468-7.492187-7.492187-7.492187h-33.234375v-13.691407c0-6.828125 5.554687-12.382812 12.382812-12.382812h199.113282c6.828124 0 12.382812 5.554687 12.382812 12.382812v13.691407h-144.125c-4.136719 0-7.492188 3.355468-7.492188 7.492187 0 4.140625 3.355469 7.496094 7.492188 7.496094h146.621094c6.886718 0 12.488281-5.601563 12.488281-12.488281v-16.191407c0-15.089843-12.277344-27.367187-27.371094-27.367187h-22.625v-26.875h145.808594c1.703125 0 3.378906-.128906 5.011719-.382813 15.816406-2.421875 27.964844-16.117187 27.964844-32.597656v-208.757813c0-4.140624-3.351563-7.496093-7.492188-7.496093-4.136719 0-7.492188 3.355469-7.492188 7.496093v165.347657h-234.234374v-250.207031h234.234374v38.398437c0 4.140625 3.355469 7.496094 7.492188 7.496094zm-488.398438-45.894531h231.683594v249.667968h-231.683594zm302.121094 353.472656h-123.886718v-26.875h123.886718zm178.785156-88.277344v28.421875c0 9.300781-7.09375 16.976563-16.15625 17.902344-.605468.058593-1.214843.089843-1.835937.089843h-445.472656c-.621094 0-1.234375-.03125-1.835938-.089843-9.0625-.925781-16.15625-8.601563-16.15625-17.902344v-28.421875zm-241.726562-280.183594h-239.179688v-53.964844c0-9.917968 8.070313-17.988281 17.992188-17.988281h444.921875c9.921875 0 17.992187 8.070313 17.992187 17.992188v53.960937zm0 0" style="fill: rgb(255, 255, 255);"/><path d="m46.90625 131.792969h37.964844c4.136718 0 7.492187-3.351563 7.492187-7.492188 0-4.136719-3.355469-7.492187-7.492187-7.492187h-37.964844c-4.140625 0-7.496094 3.355468-7.496094 7.492187 0 4.140625 3.355469 7.492188 7.496094 7.492188zm0 0" style="fill: rgb(255, 255, 255);"/><path d="m110.847656 131.792969h17.984375c4.136719 0 7.492188-3.351563 7.492188-7.492188 0-4.136719-3.355469-7.492187-7.492188-7.492187h-17.984375c-4.140625 0-7.492187 3.355468-7.492187 7.492187 0 4.140625 3.351562 7.492188 7.492187 7.492188zm0 0" style="fill: rgb(255, 255, 255);"/><path d="m103.851562 143.257812h-24.976562c-4.136719 0-7.492188 3.355469-7.492188 7.496094 0 4.136719 3.355469 7.492188 7.492188 7.492188h24.976562c4.140626 0 7.496094-3.355469 7.496094-7.492188 0-4.140625-3.355468-7.496094-7.496094-7.496094zm0 0" style="fill: rgb(255, 255, 255);"/><path d="m221.746094 170.65625h-24.976563c-4.136719 0-7.492187 3.355469-7.492187 7.492188 0 4.136718 3.355468 7.492187 7.492187 7.492187h24.976563c4.140625 0 7.492187-3.355469 7.492187-7.492187 0-4.136719-3.351562-7.492188-7.492187-7.492188zm0 0" style="fill: rgb(255, 255, 255);"/><path d="m119.339844 150.753906c0 4.136719 3.355468 7.492188 7.492187 7.492188h59.945313c4.140625 0 7.496094-3.355469 7.496094-7.492188 0-4.140625-3.355469-7.496094-7.496094-7.496094h-59.945313c-4.136719 0-7.492187 3.355469-7.492187 7.496094zm0 0" style="fill: rgb(255, 255, 255);"/><path d="m95.359375 178.148438c0 4.136718 3.355469 7.492187 7.496094 7.492187h12.988281c4.136719 0 7.492188-3.355469 7.492188-7.492187 0-4.136719-3.355469-7.492188-7.492188-7.492188h-12.988281c-4.140625 0-7.496094 3.355469-7.496094 7.492188zm0 0" style="fill: rgb(255, 255, 255);"/><path d="m173.789062 185.640625c4.140626 0 7.496094-3.355469 7.496094-7.492187 0-4.136719-3.355468-7.492188-7.496094-7.492188h-35.964843c-4.140625 0-7.496094 3.355469-7.496094 7.492188 0 4.136718 3.355469 7.492187 7.496094 7.492187zm0 0" style="fill: rgb(255, 255, 255);"/><path d="m92.363281 275.269531c0-4.140625-3.355469-7.492187-7.492187-7.492187h-37.964844c-4.140625 0-7.496094 3.351562-7.496094 7.492187 0 4.136719 3.355469 7.492188 7.496094 7.492188h37.964844c4.136718 0 7.492187-3.355469 7.492187-7.492188zm0 0" style="fill: rgb(255, 255, 255);"/><path d="m110.847656 267.777344c-4.140625 0-7.492187 3.351562-7.492187 7.492187 0 4.136719 3.351562 7.492188 7.492187 7.492188h17.984375c4.136719 0 7.492188-3.355469 7.492188-7.492188 0-4.140625-3.355469-7.492187-7.492188-7.492187zm0 0" style="fill: rgb(255, 255, 255);"/><path d="m111.347656 301.71875c0-4.136719-3.355468-7.492188-7.496094-7.492188h-24.976562c-4.136719 0-7.492188 3.355469-7.492188 7.492188 0 4.140625 3.355469 7.496094 7.492188 7.496094h24.976562c4.140626 0 7.496094-3.355469 7.496094-7.496094zm0 0" style="fill: rgb(255, 255, 255);"/><path d="m115.84375 321.625h-12.988281c-4.140625 0-7.496094 3.351562-7.496094 7.492188 0 4.136718 3.355469 7.492187 7.496094 7.492187h12.988281c4.136719 0 7.492188-3.355469 7.492188-7.492187 0-4.140626-3.355469-7.492188-7.492188-7.492188zm0 0" style="fill: rgb(255, 255, 255);"/><path d="m221.746094 321.625h-24.976563c-4.136719 0-7.492187 3.351562-7.492187 7.492188 0 4.136718 3.355468 7.492187 7.492187 7.492187h24.976563c4.140625 0 7.492187-3.355469 7.492187-7.492187 0-4.140626-3.351562-7.492188-7.492187-7.492188zm0 0" style="fill: rgb(255, 255, 255);"/><path d="m194.273438 301.71875c0-4.136719-3.355469-7.492188-7.496094-7.492188h-59.945313c-4.136719 0-7.492187 3.355469-7.492187 7.492188 0 4.140625 3.355468 7.496094 7.492187 7.496094h59.945313c4.140625 0 7.496094-3.355469 7.496094-7.496094zm0 0" style="fill: rgb(255, 255, 255);"/><path d="m173.789062 321.625h-35.964843c-4.140625 0-7.496094 3.351562-7.496094 7.492188 0 4.136718 3.355469 7.492187 7.496094 7.492187h35.964843c4.140626 0 7.496094-3.355469 7.496094-7.492187 0-4.140626-3.355468-7.492188-7.496094-7.492188zm0 0" style="fill: rgb(255, 255, 255);"/><path d="m46.90625 219.976562h20.980469c4.136719 0 7.492187-3.355468 7.492187-7.492187 0-4.140625-3.355468-7.492187-7.492187-7.492187h-20.980469c-4.140625 0-7.496094 3.351562-7.496094 7.492187 0 4.136719 3.355469 7.492187 7.496094 7.492187zm0 0" style="fill: rgb(255, 255, 255);"/><path d="m173.289062 212.484375c0-4.140625-3.351562-7.492187-7.492187-7.492187h-76.929687c-4.136719 0-7.492188 3.351562-7.492188 7.492187 0 4.136719 3.355469 7.492187 7.492188 7.492187h76.929687c4.140625 0 7.492187-3.355468 7.492187-7.492187zm0 0" style="fill: rgb(255, 255, 255);"/><path d="m159.304688 238.933594c0-4.136719-3.355469-7.492188-7.496094-7.492188h-72.933594c-4.136719 0-7.492188 3.355469-7.492188 7.492188 0 4.140625 3.355469 7.496094 7.492188 7.496094h72.933594c4.140625 0 7.496094-3.355469 7.496094-7.496094zm0 0" style="fill: rgb(255, 255, 255);"/><path d="m172.792969 246.429688h13.984375c4.140625 0 7.496094-3.355469 7.496094-7.496094 0-4.136719-3.355469-7.492188-7.496094-7.492188h-13.984375c-4.140625 0-7.496094 3.355469-7.496094 7.492188 0 4.140625 3.355469 7.496094 7.496094 7.496094zm0 0" style="fill: rgb(255, 255, 255);"/><path d="m343.015625 289.652344h-47.953125c-4.140625 0-7.496094 3.355468-7.496094 7.492187 0 4.140625 3.355469 7.492188 7.496094 7.492188h47.953125c4.140625 0 7.496094-3.351563 7.496094-7.492188 0-4.136719-3.355469-7.492187-7.496094-7.492187zm0 0" style="fill: rgb(255, 255, 255);"/><path d="m464.90625 289.652344h-94.914062c-4.136719 0-7.492188 3.355468-7.492188 7.492187 0 4.140625 3.355469 7.492188 7.492188 7.492188h94.914062c4.140625 0 7.496094-3.351563 7.496094-7.492188 0-4.136719-3.355469-7.492187-7.496094-7.492187zm0 0" style="fill: rgb(255, 255, 255);"/><path d="m343.015625 318.625h-47.953125c-4.140625 0-7.496094 3.355469-7.496094 7.496094 0 4.136718 3.355469 7.492187 7.496094 7.492187h47.953125c4.140625 0 7.496094-3.355469 7.496094-7.492187 0-4.140625-3.355469-7.496094-7.496094-7.496094zm0 0" style="fill: rgb(255, 255, 255);"/><path d="m464.90625 318.625h-94.914062c-4.136719 0-7.492188 3.355469-7.492188 7.496094 0 4.136718 3.355469 7.492187 7.492188 7.492187h94.914062c4.140625 0 7.496094-3.355469 7.496094-7.492187 0-4.140625-3.355469-7.496094-7.496094-7.496094zm0 0" style="fill: rgb(255, 255, 255);"/><path d="m472.628906 136.171875c0-10.675781-8.683594-19.363281-19.359375-19.363281h-146.570312c-10.675781 0-19.363281 8.6875-19.363281 19.363281v101.484375.007812 17.75c0 10.675782 8.6875 19.363282 19.363281 19.363282h146.570312c10.675781 0 19.359375-8.6875 19.359375-19.363282zm-14.984375 119.242187c0 2.414063-1.964843 4.375-4.375 4.375h-146.570312c-2.414063 0-4.375-1.960937-4.375-4.375v-14.648437l54.882812-54.855469 37.878907 42.6875c2.746093 3.097656 7.484374 3.378906 10.578124.632813 3.097657-2.746094 3.378907-7.480469.632813-10.578125l-3.4375-3.871094 16.9375-16.929688 37.847656 42.65625zm0-37.488281-28.839843-32.5c-2.160157-2.433593-5.265626-3.886719-8.519532-3.984375-3.269531-.09375-6.441406 1.167969-8.742187 3.46875l-18.648438 18.636719-26.679687-30.0625c-2.160156-2.4375-5.265625-3.890625-8.519532-3.984375-3.25-.089844-6.441406 1.164062-8.742187 3.464844l-46.628906 46.609375v-83.402344c0-2.414063 1.960937-4.378906 4.375-4.378906h146.570312c2.414063 0 4.375 1.964843 4.375 4.378906zm0 0" style="fill: rgb(255, 255, 255);"/></g></svg>