<?xml version="1.0"?>
<svg xmlns="http://www.w3.org/2000/svg" height="512px" viewBox="0 0 480 480" width="512px" class=""><g><path d="m184 336h16v16h-16zm0 0" data-original="#000000" class="active-path" data-old_color="#000000" fill="#CCCCCC"/><path d="m216 336h16v16h-16zm0 0" data-original="#000000" class="active-path" data-old_color="#000000" fill="#CCCCCC"/><path d="m248 336h16v16h-16zm0 0" data-original="#000000" class="active-path" data-old_color="#000000" fill="#CCCCCC"/><path d="m392 200h16v16h-16zm0 0" data-original="#000000" class="active-path" data-old_color="#000000" fill="#CCCCCC"/><path d="m440 0h-80c-22.082031.0273438-39.972656 17.917969-40 40v24h-280c-22.082031.027344-39.9726562 17.917969-40 40v240c.0273438 22.082031 17.917969 39.972656 40 40h116.902344l-10.671875 32h-18.230469c-22.082031.027344-39.972656 17.917969-40 40v24h272v-24c-.027344-22.082031-17.917969-39.972656-40-40h-18.230469l-10.671875-32h116.902344c22.082031-.027344 39.972656-17.917969 40-40v-104.800781c18.613281-3.828125 31.976562-20.199219 32-39.199219v-160c-.027344-22.082031-17.917969-39.9726562-40-40zm24 48v128h-128v-128zm-104-32h80c10.132812.042969 19.148438 6.445312 22.527344 16h-125.054688c3.378906-9.554688 12.394532-15.957031 22.527344-16zm-320 64h280v120c.027344 22.082031 17.917969 39.972656 40 40h72v63.695312h-416v-199.695312c0-13.253906 10.746094-24 24-24zm280 352c13.253906 0 24 10.746094 24 24v8h-240v-8c0-13.253906 10.746094-24 24-24zm-35.097656-16h-121.804688l10.671875-32h100.460938zm123.097656-48h-368c-13.253906 0-24-10.746094-24-24v-24.304688h416v24.304688c0 13.253906-10.746094 24-24 24zm32-144h-80c-13.253906 0-24-10.746094-24-24v-8h128v8c0 13.253906-10.746094 24-24 24zm0 0" data-original="#000000" class="active-path" data-old_color="#000000" fill="#CCCCCC"/><path d="m40 288h144c2.269531.011719 4.433594-.941406 5.960938-2.617188 1.523437-1.679687 2.265624-3.925781 2.039062-6.183593l-16-160c-.414062-4.101563-3.875-7.21875-8-7.199219h-112c-4.109375 0-7.550781 3.113281-7.960938 7.199219l-16 160c-.226562 2.25.511719 4.492187 2.027344 6.167969 1.515625 1.675781 3.671875 2.632812 5.933594 2.632812zm23.199219-160h97.601562l14.398438 144h-126.359375zm0 0" data-original="#000000" class="active-path" data-old_color="#000000" fill="#CCCCCC"/><path d="m136 160c0 13.253906-10.746094 24-24 24s-24-10.746094-24-24v-16h-16v16c0 22.089844 17.910156 40 40 40s40-17.910156 40-40v-16h-16zm0 0" data-original="#000000" class="active-path" data-old_color="#000000" fill="#CCCCCC"/><path d="m200 112h64v16h-64zm0 0" data-original="#000000" class="active-path" data-old_color="#000000" fill="#CCCCCC"/><path d="m200 144h96v16h-96zm0 0" data-original="#000000" class="active-path" data-old_color="#000000" fill="#CCCCCC"/><path d="m352 64h64v16h-64zm0 0" data-original="#000000" class="active-path" data-old_color="#000000" fill="#CCCCCC"/><path d="m352 96h96v16h-96zm0 0" data-original="#000000" class="active-path" data-old_color="#000000" fill="#CCCCCC"/><path d="m352 128h96v16h-96zm0 0" data-original="#000000" class="active-path" data-old_color="#000000" fill="#CCCCCC"/><path d="m244.800781 289.222656 17.121094-51.300781 51.300781-17.121094-111.152344-42.730469zm4.445313-63.949218-5.527344 16.582031-13.816406-35.925781 35.929687 13.8125zm0 0" data-original="#000000" class="active-path" data-old_color="#000000" fill="#CCCCCC"/></g> </svg>
