<?xml version="1.0" encoding="utf-8"?>
<svg id="master-artboard" viewBox="0 0 1380.17236328125 143.27125549316406" version="1.1" xmlns="http://www.w3.org/2000/svg" x="0px" y="0px" style="enable-background:new 0 0 1400 980;" width="1380.17236328125px" height="143.27125549316406px"><rect id="ee-background" x="0" y="0" width="1380.17236328125" height="143.27125549316406" style="fill: white; fill-opacity: 0; pointer-events: none;"/><defs><style id="ee-google-fonts">@import url(https://fonts.googleapis.com/css?family=Fjalla+One:400|Roboto:100,100italic,300,300italic,400,400italic,500,500italic,700,700italic,900,900italic);</style></defs>

































































































<g transform="matrix(1.7177915573120117, 0, 0, 1.7177915573120117, -10.944902420043945, -174.59738159179688)"><path d="M 105.12000274658203 0 L 93.41999816894531 -27.18000030517578 L 40.68000030517578 -27.18000030517578 L 28.979999542236328 0 L -0.8999999761581421 0 L 53.459999084472656 -125.81999969482422 L 80.63999938964844 -125.81999969482422 L 135 0 L 105.12000274658203 0 M 67.13999938964844 -88.37999725341797 L 51.29999923706055 -51.84000015258789 L 82.80000305175781 -51.84000015258789 L 67.13999938964844 -88.37999725341797 ZM 259.0193176269531 -84.05999755859375 C 259.0193176269531 -63.900001525878906 251.039306640625 -50.880001068115234 235.07931518554688 -45 L 266.9393005371094 0 L 232.37930297851562 0 L 204.47930908203125 -40.13999938964844 L 185.039306640625 -40.13999938964844 L 185.039306640625 0 L 156.9593048095703 0 L 156.9593048095703 -125.81999969482422 L 204.6593017578125 -125.81999969482422 C 224.21929931640625 -125.81999969482422 238.1693115234375 -122.5199966430664 246.50930786132812 -115.91999816894531 C 254.84930419921875 -109.31999969482422 259.0193176269531 -98.69999694824219 259.0193176269531 -84.05999755859375 M 205.55931091308594 -64.44000244140625 C 215.1593017578125 -64.44000244140625 221.69931030273438 -66 225.17930603027344 -69.12000274658203 C 228.6593017578125 -72.23999786376953 230.39930725097656 -77.19000244140625 230.39930725097656 -83.97000122070312 C 230.39930725097656 -90.75 228.59930419921875 -95.4000015258789 224.99929809570312 -97.91999816894531 C 221.39930725097656 -100.44000244140625 215.09930419921875 -101.69999694824219 206.09930419921875 -101.69999694824219 L 185.039306640625 -101.69999694824219 L 185.039306640625 -64.44000244140625 L 205.55931091308594 -64.44000244140625 ZM 341.638671875 -101.5199966430664 L 341.638671875 0 L 313.55865478515625 0 L 313.55865478515625 -101.5199966430664 L 277.9186706542969 -101.5199966430664 L 277.9186706542969 -125.81999969482422 L 377.2786560058594 -125.81999969482422 L 377.2786560058594 -101.5199966430664 L 341.638671875 -101.5199966430664 ZM 402.6581115722656 -125.81999969482422 L 430.73809814453125 -125.81999969482422 L 430.73809814453125 0 L 402.6581115722656 0 L 402.6581115722656 -125.81999969482422 ZM 521.4578247070312 -24.84000015258789 C 535.2578125 -24.84000015258789 546.537841796875 -30.299999237060547 555.2977905273438 -41.220001220703125 L 573.2977905273438 -22.68000030517578 C 559.017822265625 -6.599999904632568 542.1878051757812 1.440000057220459 522.8078002929688 1.440000057220459 C 503.4278259277344 1.440000057220459 487.4678039550781 -4.679999828338623 474.9278259277344 -16.920000076293945 C 462.3878173828125 -29.15999984741211 456.1178283691406 -44.61000061035156 456.1178283691406 -63.27000045776367 C 456.1178283691406 -81.93000030517578 462.5078125 -97.5 475.2878112792969 -109.9800033569336 C 488.06781005859375 -122.45999908447266 503.69781494140625 -128.6999969482422 522.1777954101562 -128.6999969482422 C 542.8178100585938 -128.6999969482422 560.0978393554688 -120.83999633789062 574.017822265625 -105.12000274658203 L 556.5578002929688 -85.31999969482422 C 547.6777954101562 -96.36000061035156 536.6378173828125 -101.87999725341797 523.4378051757812 -101.87999725341797 C 512.8778076171875 -101.87999725341797 503.8478088378906 -98.43000030517578 496.3478088378906 -91.52999877929688 C 488.8478088378906 -84.62999725341797 485.0978088378906 -75.33000183105469 485.0978088378906 -63.630001068115234 C 485.0978088378906 -51.93000030517578 488.6378173828125 -42.540000915527344 495.7178039550781 -35.459999084472656 C 502.7978210449219 -28.3799991607666 511.3778076171875 -24.84000015258789 521.4578247070312 -24.84000015258789 ZM 596.5171508789062 0 L 596.5171508789062 -125.81999969482422 L 624.59716796875 -125.81999969482422 L 624.59716796875 -25.020000457763672 L 678.2371826171875 -25.020000457763672 L 678.2371826171875 0 L 596.5171508789062 0 ZM 797.03662109375 -125.81999969482422 L 797.03662109375 -100.80000305175781 L 734.3966064453125 -100.80000305175781 L 734.3966064453125 -74.87999725341797 L 790.7366333007812 -74.87999725341797 L 790.7366333007812 -50.939998626708984 L 734.3966064453125 -50.939998626708984 L 734.3966064453125 -24.84000015258789 L 799.0166015625 -24.84000015258789 L 799.0166015625 0 L 706.3165893554688 0 L 706.3165893554688 -125.81999969482422 L 797.03662109375 -125.81999969482422 Z" transform="matrix(1, 0, 0, 1, 3, 174)" style="white-space: pre; fill: rgb(28, 28, 28); opacity: 0.09;"/></g></svg>