<?xml version="1.0"?>
<svg xmlns="http://www.w3.org/2000/svg" viewBox="0 0 64 64" width="512px" height="512px"><g><g id="Outline"><g><circle cx="17" cy="17" r="1" data-original="#000000" class="active-path" data-old_color="#000000" fill="#575757"/><circle cx="21" cy="17" r="1" data-original="#000000" class="active-path" data-old_color="#000000" fill="#575757"/><path d="M12,17.9V19a7,7,0,0,0,2.11,5H14a5,5,0,0,0-5,5V39a1,1,0,0,0,2,0V29a3,3,0,0,1,3-3h1.43L18,30.28V39a1,1,0,0,0,2,0V30.28L22.57,26H24a3,3,0,0,1,3,3V39a1,1,0,0,0,2,0V29a5,5,0,0,0-5-5h-.11A7,7,0,0,0,26,19V17.9A5,5,0,0,0,30,13V11a5,5,0,0,0-5-5H9A1,1,0,0,0,8,7v6A5,5,0,0,0,12,17.9Zm7,10.16L17.77,26h2.46ZM24,19a5,5,0,0,1-10,0V12.72A12.88,12.88,0,0,0,19.61,14H24ZM10,8H25a3,3,0,0,1,3,3v2a3,3,0,0,1-2,2.82V13a1,1,0,0,0-1-1H19.61a10.87,10.87,0,0,1-6.06-1.83,1,1,0,0,0-1-.05A1,1,0,0,0,12,11v4.82A3,3,0,0,1,10,13Z" data-original="#000000" class="active-path" data-old_color="#000000" fill="#575757"/><path d="M13,31v8a1,1,0,0,0,2,0V31a1,1,0,0,0-2,0Z" data-original="#000000" class="active-path" data-old_color="#000000" fill="#575757"/><path d="M23,31v8a1,1,0,0,0,2,0V31a1,1,0,0,0-2,0Z" data-original="#000000" class="active-path" data-old_color="#000000" fill="#575757"/><path d="M19.71,19.71a1,1,0,0,1-1.42,0,1,1,0,0,0-1.41,1.41,3,3,0,0,0,4.24,0,1,1,0,0,0-1.41-1.41Z" data-original="#000000" class="active-path" data-old_color="#000000" fill="#575757"/><path d="M51,12h2a1,1,0,0,0,0-2H51a1,1,0,0,0,0,2Z" data-original="#000000" class="active-path" data-old_color="#000000" fill="#575757"/><path d="M51,16h2a1,1,0,0,0,0-2H51a1,1,0,0,0,0,2Z" data-original="#000000" class="active-path" data-old_color="#000000" fill="#575757"/><path d="M43,10H41a1,1,0,0,0,0,2h2a1,1,0,0,0,0-2Z" data-original="#000000" class="active-path" data-old_color="#000000" fill="#575757"/><path d="M43,14H41a1,1,0,0,0,0,2h2a1,1,0,0,0,0-2Z" data-original="#000000" class="active-path" data-old_color="#000000" fill="#575757"/><path d="M47,22a1,1,0,0,0,1-1,1,1,0,0,1,1-1h8a1,1,0,0,0,1-1V7a1,1,0,0,0-1-1H51a5,5,0,0,0-4,2,5,5,0,0,0-4-2H37a1,1,0,0,0-1,1V19a1,1,0,0,0,1,1h6a1,1,0,0,0,0-2H38V8h5a3,3,0,0,1,3,3V21A1,1,0,0,0,47,22ZM51,8h5V18H49a3,3,0,0,0-1,.17V11A3,3,0,0,1,51,8Z" data-original="#000000" class="active-path" data-old_color="#000000" fill="#575757"/><path d="M61,15a1,1,0,0,0,1-1V7a5,5,0,0,0-5-5H37a5,5,0,0,0-5,5V21a5,5,0,0,0,4.62,5l-1.57,4.69a1,1,0,0,0,.32,1.09,1,1,0,0,0,1.13.1L46.63,26H57a5,5,0,0,0,5-5V18a1,1,0,0,0-2,0v3a3,3,0,0,1-3,3H46.36a1.09,1.09,0,0,0-.5.13l-8.08,4.68L39,25.32a1,1,0,0,0-.14-.9A1,1,0,0,0,38,24H37a3,3,0,0,1-3-3V7a3,3,0,0,1,3-3H57a3,3,0,0,1,3,3v7A1,1,0,0,0,61,15Z" data-original="#000000" class="active-path" data-old_color="#000000" fill="#575757"/><path d="M47,36a1,1,0,0,0,0-2H39a1,1,0,0,0,0,2Z" data-original="#000000" class="active-path" data-old_color="#000000" fill="#575757"/><path d="M32,39a1,1,0,0,0,1,1H47a1,1,0,0,0,0-2H33A1,1,0,0,0,32,39Z" data-original="#000000" class="active-path" data-old_color="#000000" fill="#575757"/><path d="M33,44h8a1,1,0,0,0,0-2H33a1,1,0,0,0,0,2Z" data-original="#000000" class="active-path" data-old_color="#000000" fill="#575757"/><path d="M51,28a1,1,0,0,0-1,1V45a1,1,0,0,1-1,1H5a1,1,0,0,1-1-1V19a1,1,0,0,1,1-1H6a1,1,0,0,0,0-2H5a3,3,0,0,0-3,3V45a3,3,0,0,0,3,3H17.13l-2.67,4H12a1,1,0,0,0,0,2H42a1,1,0,0,1,1,1v1H10a1,1,0,0,0,0,2H44a1,1,0,0,0,1-1V55a3,3,0,0,0-3-3H39.54l-2.67-4H49a3,3,0,0,0,3-3V29A1,1,0,0,0,51,28ZM37.13,52H16.87l2.67-4H34.46Z" data-original="#000000" class="active-path" data-old_color="#000000" fill="#575757"/></g></g></g> </svg>
