<?xml version="1.0"?>
<svg xmlns="http://www.w3.org/2000/svg" id="Capa_1" enable-background="new 0 0 512 512" height="512px" viewBox="0 0 512 512" width="512px"><g><path d="m136 146h120c5.522 0 10-4.477 10-10s-4.478-10-10-10h-120c-5.523 0-10 4.477-10 10s4.477 10 10 10z" data-original="#000000" class="active-path" data-old_color="#000000" fill="#CDCBCB"/><path d="m136 186h240c5.522 0 10-4.477 10-10s-4.478-10-10-10h-240c-5.523 0-10 4.477-10 10s4.477 10 10 10z" data-original="#000000" class="active-path" data-old_color="#000000" fill="#CDCBCB"/><path d="m376 206h-240c-5.523 0-10 4.477-10 10s4.477 10 10 10h240c5.522 0 10-4.477 10-10s-4.478-10-10-10z" data-original="#000000" class="active-path" data-old_color="#000000" fill="#CDCBCB"/><path d="m376 246h-240c-5.523 0-10 4.477-10 10s4.477 10 10 10h240c5.522 0 10-4.477 10-10s-4.478-10-10-10z" data-original="#000000" class="active-path" data-old_color="#000000" fill="#CDCBCB"/><path d="m376 286h-240c-5.523 0-10 4.477-10 10s4.477 10 10 10h240c5.522 0 10-4.477 10-10s-4.478-10-10-10z" data-original="#000000" class="active-path" data-old_color="#000000" fill="#CDCBCB"/><path d="m376 326h-180c-5.523 0-10 4.477-10 10s4.477 10 10 10h180c5.522 0 10-4.477 10-10s-4.478-10-10-10z" data-original="#000000" class="active-path" data-old_color="#000000" fill="#CDCBCB"/><path d="m286 462c0-5.523-4.478-10-10-10h-40c-5.523 0-10 4.477-10 10s4.477 10 10 10h40c5.522 0 10-4.477 10-10z" data-original="#000000" class="active-path" data-old_color="#000000" fill="#CDCBCB"/><circle cx="256" cy="502" r="10" data-original="#000000" class="active-path" data-old_color="#000000" fill="#CDCBCB"/><path d="m106 512h105c5.523 0 10-4.477 10-10s-4.477-10-10-10h-105c-11.028 0-20-8.972-20-20v-40h340v40c0 11.028-8.972 20-20 20h-105c-5.522 0-10 4.477-10 10s4.478 10 10 10h105c22.056 0 40-17.944 40-40v-432c0-22.056-17.944-40-40-40h-300c-22.056 0-40 17.944-40 40v432c0 22.056 17.944 40 40 40zm-20-100v-332h340v332zm20-392h300c11.028 0 20 8.972 20 20v20h-340v-20c0-11.028 8.972-20 20-20z" data-original="#000000" class="active-path" data-old_color="#000000" fill="#CDCBCB"/></g> </svg>
