<?xml version="1.0" encoding="utf-8"?>
<svg id="master-artboard" viewBox="0 0 660 660" version="1.1" xmlns="http://www.w3.org/2000/svg" x="0px" y="0px" style="enable-background:new 0 0 1400 980;" width="660px" height="660px" xmlns:xlink="http://www.w3.org/1999/xlink"><rect id="ee-background" x="0" y="0" width="660" height="660" style="fill: white; fill-opacity: 0; pointer-events: none;"/><defs><style id="ee-google-fonts">@import url(https://fonts.googleapis.com/css?family=Fjalla+One:400|Roboto:100,100italic,300,300italic,400,400italic,500,500italic,700,700italic,900,900italic);</style><path d="M324.34 4.03L326.5 4.17L328.66 4.37L330.82 4.62L332.97 4.93L335.12 5.29L337.25 5.71L339.38 6.19L341.5 6.72L343.61 7.31L345.7 7.95L347.78 8.65L349.85 9.41L351.9 10.22L353.93 11.08L355.95 12.01L357.94 12.99L359.92 14.02L361.88 15.11L564.8 132.27L566.72 133.42L568.61 134.61L570.46 135.85L572.26 137.14L574.03 138.47L575.76 139.84L577.45 141.25L579.09 142.7L580.7 144.19L582.26 145.72L583.78 147.29L585.25 148.9L586.69 150.54L588.07 152.22L589.42 153.92L590.71 155.67L591.96 157.44L593.17 159.25L594.32 161.08L595.43 162.95L596.49 164.84L597.5 166.76L598.46 168.7L599.37 170.67L600.23 172.67L601.04 174.68L601.8 176.72L602.51 178.78L603.16 180.86L603.76 182.96L604.3 185.08L604.79 187.22L605.23 189.37L605.6 191.54L605.93 193.72L606.19 195.91L606.4 198.12L606.55 200.34L606.64 202.57L606.68 204.81L606.68 439.12L606.64 441.36L606.55 443.59L606.4 445.81L606.19 448.01L605.93 450.21L605.6 452.39L605.23 454.56L604.79 456.71L604.3 458.85L603.76 460.96L603.16 463.06L602.5 465.14L601.8 467.2L601.04 469.24L600.23 471.26L599.37 473.25L598.46 475.22L597.5 477.17L596.49 479.09L595.43 480.98L594.32 482.84L593.16 484.68L591.96 486.48L590.71 488.26L589.41 490L588.07 491.71L586.68 493.39L585.25 495.03L583.78 496.63L582.26 498.2L580.7 499.73L579.09 501.22L577.44 502.67L575.76 504.09L574.03 505.46L572.26 506.78L570.45 508.07L568.61 509.31L566.72 510.5L564.8 511.65L361.88 628.81L359.92 629.9L357.94 630.94L355.95 631.92L353.93 632.84L351.9 633.71L349.85 634.52L347.78 635.27L345.7 635.97L343.6 636.62L341.5 637.2L339.38 637.73L337.25 638.21L335.12 638.63L332.97 638.99L330.82 639.3L328.66 639.55L326.5 639.75L324.34 639.89L322.17 639.97L320 640L317.83 639.97L315.66 639.89L313.5 639.75L311.34 639.55L309.18 639.3L307.03 638.99L304.88 638.63L302.75 638.21L300.62 637.73L298.5 637.2L296.4 636.62L294.3 635.97L292.22 635.27L290.15 634.52L288.1 633.71L286.07 632.84L284.05 631.92L282.06 630.94L280.08 629.9L278.12 628.81L277.79 628.62L276.8 628.04L275.19 627.12L272.99 625.85L270.24 624.26L266.96 622.37L263.19 620.19L258.97 617.75L254.32 615.07L249.27 612.15L243.86 609.03L238.13 605.72L232.09 602.24L225.8 598.6L219.27 594.83L212.54 590.94L205.64 586.96L198.61 582.9L191.48 578.78L184.27 574.62L177.03 570.44L169.78 566.26L162.56 562.09L155.39 557.95L148.32 553.87L141.38 549.86L134.58 545.94L127.98 542.12L121.6 538.44L115.47 534.9L109.62 531.53L104.1 528.33L98.92 525.35L94.12 522.58L89.74 520.05L85.81 517.78L82.36 515.78L79.42 514.09L77.02 512.7L75.2 511.65L73.28 510.5L71.39 509.31L69.55 508.07L67.74 506.78L65.97 505.46L64.24 504.09L62.56 502.67L60.91 501.22L59.3 499.73L57.74 498.2L56.22 496.63L54.75 495.03L53.32 493.39L51.93 491.71L50.59 490L49.29 488.26L48.04 486.48L46.84 484.68L45.68 482.84L44.57 480.98L43.51 479.09L42.5 477.17L41.54 475.22L40.63 473.25L39.77 471.26L38.96 469.24L38.2 467.2L37.5 465.14L36.84 463.06L36.24 460.96L35.7 458.85L35.21 456.71L34.77 454.56L34.4 452.39L34.07 450.21L33.81 448.01L33.6 445.81L33.45 443.59L33.36 441.36L33.32 439.12L33.32 204.8L33.36 202.56L33.45 200.33L33.6 198.11L33.81 195.91L34.07 193.71L34.4 191.53L34.77 189.36L35.21 187.21L35.7 185.08L36.24 182.96L36.84 180.86L37.5 178.78L38.2 176.72L38.96 174.68L39.77 172.66L40.63 170.67L41.54 168.7L42.5 166.75L43.51 164.83L44.57 162.94L45.68 161.08L46.84 159.24L48.04 157.44L49.29 155.66L50.59 153.92L51.93 152.21L53.32 150.54L54.75 148.9L56.22 147.29L57.74 145.72L59.3 144.19L60.91 142.7L62.56 141.25L64.24 139.84L65.97 138.46L67.74 137.14L69.55 135.85L71.39 134.61L73.28 133.42L75.2 132.27L278.12 15.11L280.08 14.02L282.06 12.99L284.05 12.01L286.07 11.08L288.1 10.22L290.15 9.41L292.22 8.65L294.3 7.95L296.39 7.31L298.5 6.72L300.62 6.19L302.75 5.71L304.88 5.29L307.03 4.93L309.18 4.62L311.34 4.37L313.5 4.17L315.66 4.03L317.83 3.95L320 3.92L322.17 3.95L324.34 4.03ZM316.63 22.65L314.95 22.76L313.27 22.91L311.59 23.1L309.92 23.34L308.25 23.63L306.59 23.95L304.93 24.32L303.29 24.73L301.65 25.19L300.02 25.69L298.4 26.23L296.8 26.82L295.2 27.45L293.62 28.12L292.05 28.84L290.5 29.6L288.96 30.41L287.44 31.25L84.52 148.41L83.02 149.3L81.56 150.23L80.12 151.19L78.72 152.19L77.34 153.22L76 154.29L74.69 155.39L73.41 156.52L72.16 157.68L70.95 158.87L69.77 160.09L68.62 161.33L67.51 162.61L66.43 163.91L65.39 165.24L64.38 166.6L63.41 167.98L62.47 169.38L61.57 170.81L60.71 172.26L59.89 173.73L59.1 175.22L58.35 176.73L57.64 178.26L56.97 179.81L56.34 181.38L55.76 182.96L55.21 184.57L54.7 186.18L54.23 187.82L53.81 189.46L53.43 191.12L53.09 192.8L52.8 194.48L52.54 196.18L52.34 197.88L52.17 199.6L52.06 201.32L51.98 203.06L51.96 204.8L51.96 439.11L51.98 440.85L52.06 442.59L52.17 444.31L52.34 446.03L52.54 447.74L52.79 449.43L53.09 451.12L53.43 452.79L53.81 454.45L54.23 456.1L54.7 457.73L55.2 459.35L55.75 460.95L56.34 462.54L56.97 464.1L57.64 465.65L58.35 467.19L59.1 468.7L59.88 470.19L60.71 471.66L61.57 473.11L62.47 474.54L63.4 475.94L64.37 477.32L65.38 478.68L66.43 480.01L67.5 481.31L68.62 482.58L69.77 483.83L70.95 485.05L72.16 486.24L73.41 487.4L74.69 488.53L76 489.63L77.34 490.7L78.72 491.73L80.12 492.73L81.56 493.69L83.02 494.62L84.52 495.52L287.44 612.67L288.96 613.52L290.5 614.32L292.05 615.08L293.62 615.8L295.2 616.47L296.8 617.1L298.4 617.69L300.02 618.23L301.65 618.73L303.29 619.19L304.93 619.6L306.59 619.97L308.25 620.3L309.92 620.58L311.59 620.82L313.27 621.01L314.95 621.17L316.63 621.27L318.31 621.34L320 621.36L321.69 621.34L323.37 621.27L325.05 621.17L326.73 621.01L328.41 620.82L330.08 620.58L331.75 620.3L333.41 619.97L335.07 619.6L336.71 619.19L338.35 618.73L339.98 618.23L341.6 617.69L343.2 617.1L344.8 616.47L346.38 615.8L347.95 615.08L349.5 614.32L351.04 613.52L352.56 612.67L555.48 495.52L556.98 494.62L558.44 493.69L559.88 492.73L561.28 491.73L562.66 490.7L564 489.63L565.31 488.53L566.59 487.4L567.84 486.24L569.05 485.05L570.23 483.83L571.38 482.59L572.49 481.31L573.57 480.01L574.61 478.68L575.62 477.32L576.59 475.95L577.53 474.54L578.43 473.12L579.29 471.67L580.11 470.2L580.9 468.7L581.65 467.19L582.36 465.66L583.03 464.11L583.66 462.54L584.24 460.96L584.79 459.36L585.3 457.74L585.77 456.11L586.19 454.46L586.57 452.8L586.91 451.13L587.2 449.44L587.46 447.75L587.66 446.04L587.83 444.32L587.94 442.6L588.02 440.86L588.04 439.12L588.04 204.8L588.02 203.06L587.94 201.33L587.83 199.6L587.66 197.89L587.46 196.18L587.21 194.48L586.91 192.8L586.57 191.13L586.19 189.47L585.77 187.82L585.3 186.19L584.79 184.57L584.25 182.97L583.66 181.38L583.03 179.81L582.36 178.26L581.65 176.73L580.9 175.22L580.12 173.73L579.29 172.26L578.43 170.81L577.53 169.38L576.6 167.98L575.62 166.6L574.62 165.24L573.57 163.91L572.49 162.61L571.38 161.34L570.23 160.09L569.05 158.87L567.84 157.68L566.59 156.52L565.31 155.39L564 154.29L562.66 153.22L561.28 152.19L559.88 151.19L558.44 150.23L556.98 149.3L555.48 148.41L352.56 31.25L351.04 30.41L349.5 29.6L347.95 28.84L346.38 28.12L344.8 27.45L343.2 26.82L341.6 26.23L339.98 25.69L338.35 25.19L336.71 24.73L335.07 24.32L333.41 23.95L331.75 23.63L330.08 23.34L328.41 23.1L326.73 22.91L325.05 22.76L323.37 22.65L321.69 22.58L320 22.56L318.31 22.58L316.63 22.65Z" id="adEqISoNx"/></defs>







<path d="M 529.200012 100.900002 L 873.200012 100.900002" class="st4" style="fill: rgb(255, 255, 255);" transform="matrix(1, 0, 0, 1, -19.827693939208984, -95.17294311523438)"/>



































<g transform="matrix(1, 0, 0, 1, -19.827693939208984, -95.17294311523438)">
		<path class="st13" d="M448.4,599.9" style="fill: rgb(223, 243, 251);"/>
	</g>





















































<g transform="matrix(4.366671562194824, 0, 0, 4.366671562194824, 198.41123962402344, 184.8077903041251)"><path d="m54 44h-9v-19.3335a3.01511 3.01511 0 0 0 -.60059-1.80029l-4.999-6.666a3.01329 3.01329 0 0 0 -2.40041-1.20021h-31a3.00328 3.00328 0 0 0 -3 3v41a3.00328 3.00328 0 0 0 3 3h48a3.00328 3.00328 0 0 0 3-3v-12a3.00328 3.00328 0 0 0 -3-3zm-11 16h-37a1.001 1.001 0 0 1 -1-1v-41a1.001 1.001 0 0 1 1-1h31a1.00317 1.00317 0 0 1 .7998.3999l5 6.66651a1.00827 1.00827 0 0 1 .2002.60009zm12-1a1.001 1.001 0 0 1 -1 1h-9v-14h9a1.001 1.001 0 0 1 1 1z" style="fill: rgb(255, 255, 255);"/><path d="m50 42v-12a3.00328 3.00328 0 0 0 -3-3v2a1.001 1.001 0 0 1 1 1v12z" style="fill: rgb(255, 255, 255);"/><path d="m60.41406 14-11.41406-11.41406a2.01231 2.01231 0 0 0 -1.41406-.58594h-29.58594a3.00328 3.00328 0 0 0 -3 3v3h-5a3.00328 3.00328 0 0 0 -3 3v2h2v-2a1.001 1.001 0 0 1 1-1h35v-2h-28v-3a1.001 1.001 0 0 1 1-1h29v10a2.00229 2.00229 0 0 0 2 2h10v41h2v-41.58594a1.98633 1.98633 0 0 0 -.58594-1.41406zm-11.41406-8.58594 8.58594 8.58594h-8.58594z" style="fill: rgb(255, 255, 255);"/><path d="m52 18h2v24h-2z" style="fill: rgb(255, 255, 255);"/><path d="m14 29h4a2.00229 2.00229 0 0 0 2-2v-4a2.00229 2.00229 0 0 0 -2-2h-4a2.00229 2.00229 0 0 0 -2 2v4a2.00229 2.00229 0 0 0 2 2zm0-6h4l.001 4h-4.001z" style="fill: rgb(255, 255, 255);"/><path d="m22 22h2v2h-2z" style="fill: rgb(255, 255, 255);"/><path d="m26 22h10v2h-10z" style="fill: rgb(255, 255, 255);"/><path d="m22 26h2v2h-2z" style="fill: rgb(255, 255, 255);"/><path d="m26 26h10v2h-10z" style="fill: rgb(255, 255, 255);"/><path d="m13 50h-2a2.00229 2.00229 0 0 0 -2 2v2a2.00229 2.00229 0 0 0 2 2h2a2.00229 2.00229 0 0 0 2-2v-2a2.00229 2.00229 0 0 0 -2-2zm-2 4v-2h2l.001 2z" style="fill: rgb(255, 255, 255);"/><path d="m34 34v2a2.00229 2.00229 0 0 0 2 2h2a2.00229 2.00229 0 0 0 2-2v-2a2.00229 2.00229 0 0 0 -2-2h-2a2.00229 2.00229 0 0 0 -2 2zm4.001 2h-2.001v-2h2z" style="fill: rgb(255, 255, 255);"/><path d="m40 45v-2a2.00229 2.00229 0 0 0 -2-2h-2a2.00229 2.00229 0 0 0 -2 2v2a2.00229 2.00229 0 0 0 2 2h2a2.00229 2.00229 0 0 0 2-2zm-4 0v-2h2l.001 2z" style="fill: rgb(255, 255, 255);"/><path d="m17 50h2v2h-2z" style="fill: rgb(255, 255, 255);"/><path d="m21 50h16v2h-16z" style="fill: rgb(255, 255, 255);"/><path d="m17 54h2v2h-2z" style="fill: rgb(255, 255, 255);"/><path d="m21 54h16v2h-16z" style="fill: rgb(255, 255, 255);"/><path d="m30 41h2v2h-2z" style="fill: rgb(255, 255, 255);"/><path d="m12 41h16v2h-16z" style="fill: rgb(255, 255, 255);"/><path d="m30 45h2v2h-2z" style="fill: rgb(255, 255, 255);"/><path d="m12 45h16v2h-16z" style="fill: rgb(255, 255, 255);"/><path d="m30 32h2v2h-2z" style="fill: rgb(255, 255, 255);"/><path d="m12 32h16v2h-16z" style="fill: rgb(255, 255, 255);"/><path d="m30 36h2v2h-2z" style="fill: rgb(255, 255, 255);"/><path d="m12 36h16v2h-16z" style="fill: rgb(255, 255, 255);"/><path d="m8 32h2v2h-2z" style="fill: rgb(255, 255, 255);"/><path d="m8 36h2v2h-2z" style="fill: rgb(255, 255, 255);"/><path d="m8 41h2v2h-2z" style="fill: rgb(255, 255, 255);"/><path d="m8 45h2v2h-2z" style="fill: rgb(255, 255, 255);"/><path d="m39 50h2v2h-2z" style="fill: rgb(255, 255, 255);"/><path d="m39 54h2v2h-2z" style="fill: rgb(255, 255, 255);"/></g><g transform="matrix(1.013611316680908, 0, 0, 1.013611316680908, 7.840802176196803, 4.317984095911015)"><g><g><g><use opacity="1" fill="#ffd940" fill-opacity="1" xlink:href="#adEqISoNx"/><g><use opacity="1" fill-opacity="0" stroke="#000000" stroke-width="1" stroke-opacity="0" xlink:href="#adEqISoNx"/></g></g></g></g></g></svg>