<?xml version="1.0" encoding="utf-8"?>
<svg id="master-artboard" viewBox="0 0 804.8453369140625 53.022972106933594" xmlns="http://www.w3.org/2000/svg" width="804.8453369140625px" height="53.022972106933594px" version="1.1" style="shape-rendering:geometricPrecision; text-rendering:geometricPrecision; image-rendering:optimizeQuality; fill-rule:evenodd; clip-rule:evenodd"><rect id="ee-background" x="0" y="0" width="804.8453369140625" height="53.022972106933594" style="fill: white; fill-opacity: 0; pointer-events: none;"/>
 
 <metadata id="CorelCorpID_0Corel-Layer"/>
<path d="M 339.37432861328125 512.1699829101562 L 354.74432373046875 462.32000732421875 L 374.9543151855469 462.32000732421875 L 390.2143249511719 512.1699829101562 L 407.4443054199219 462.32000732421875 L 428.4043273925781 462.32000732421875 L 398.1443176269531 549 L 383.7643127441406 549 L 364.7943115234375 488.739990234375 L 345.9443054199219 549 L 331.5543212890625 549 L 301.3043212890625 462.32000732421875 L 322.2543029785156 462.32000732421875 L 339.37432861328125 512.1699829101562 ZM 501.1903381347656 462.32000732421875 L 501.1903381347656 479.55999755859375 L 458.04034423828125 479.55999755859375 L 458.04034423828125 497.41998291015625 L 496.850341796875 497.41998291015625 L 496.850341796875 513.9099731445312 L 458.04034423828125 513.9099731445312 L 458.04034423828125 531.8900146484375 L 502.5503234863281 531.8900146484375 L 502.5503234863281 549 L 438.6903381347656 549 L 438.6903381347656 462.32000732421875 L 501.1903381347656 462.32000732421875 ZM 557.736328125 549 L 519.7863159179688 549 L 519.7863159179688 462.32000732421875 L 553.5162963867188 462.32000732421875 C 559.3896484375 462.32000732421875 564.4530029296875 463.0233154296875 568.706298828125 464.42999267578125 C 572.96630859375 465.836669921875 576.169677734375 467.739990234375 578.3162841796875 470.1400146484375 C 582.2030029296875 474.6000061035156 584.1463012695312 479.6400146484375 584.1463012695312 485.260009765625 C 584.1463012695312 492.0400085449219 581.956298828125 497.0833435058594 577.5762939453125 500.3900146484375 C 576.0896606445312 501.54998779296875 575.0563354492188 502.2733459472656 574.476318359375 502.55999755859375 C 573.8963012695312 502.85333251953125 572.8629760742188 503.33001708984375 571.3763427734375 503.989990234375 C 576.7496337890625 505.1433410644531 581.0263061523438 507.55999755859375 584.206298828125 511.239990234375 C 587.3930053710938 514.9199829101562 588.986328125 519.4866943359375 588.986328125 524.9400024414062 C 588.986328125 530.97998046875 586.919677734375 536.3133544921875 582.7863159179688 540.9400024414062 C 577.986328125 546.3133544921875 569.6362915039062 549 557.736328125 549 M 539.1362915039062 497.41998291015625 L 548.3063354492188 497.41998291015625 C 553.6796264648438 497.41998291015625 557.669677734375 496.8399963378906 560.2763061523438 495.67999267578125 C 562.8829956054688 494.5199890136719 564.1863403320312 492.0199890136719 564.1863403320312 488.17999267578125 C 564.1863403320312 484.3333435058594 562.986328125 481.7900085449219 560.5863037109375 480.54998779296875 C 558.1863403320312 479.30999755859375 554.1362915039062 478.69000244140625 548.4363403320312 478.69000244140625 L 539.1362915039062 478.69000244140625 L 539.1362915039062 497.41998291015625 M 539.1362915039062 532.6300048828125 L 552.4063110351562 532.6300048828125 C 557.9396362304688 532.6300048828125 562.0929565429688 531.9500122070312 564.8663330078125 530.5900268554688 C 567.6329956054688 529.2233276367188 569.0162963867188 526.5366821289062 569.0162963867188 522.530029296875 C 569.0162963867188 518.5166625976562 567.5496215820312 515.8699951171875 564.6163330078125 514.5900268554688 C 561.6829833984375 513.3099975585938 556.9929809570312 512.6699829101562 550.5463256835938 512.6699829101562 L 539.1362915039062 512.6699829101562 L 539.1362915039062 532.6300048828125 ZM 665.8583374023438 477.33001708984375 C 662.6383666992188 477.33001708984375 660.0983276367188 478.09332275390625 658.2383422851562 479.6199951171875 C 656.3783569335938 481.1533203125 655.4483642578125 483.17999267578125 655.4483642578125 485.70001220703125 C 655.4483642578125 488.2200012207031 656.5850219726562 490.22332763671875 658.8583374023438 491.7099914550781 C 661.1316528320312 493.1966552734375 666.3816528320312 494.9533386230469 674.6083374023438 496.9800109863281 C 682.828369140625 499.00665283203125 689.211669921875 502.0466613769531 693.7583618164062 506.1000061035156 C 698.3049926757812 510.14666748046875 700.578369140625 516.056640625 700.578369140625 523.8300170898438 C 700.578369140625 531.5966796875 697.6650390625 537.9000244140625 691.8383178710938 542.739990234375 C 686.0116577148438 547.5733032226562 678.3450317382812 549.989990234375 668.8383178710938 549.989990234375 C 655.1183471679688 549.989990234375 642.7583618164062 544.9066772460938 631.7583618164062 534.739990234375 L 643.29833984375 520.5999755859375 C 652.6383666992188 528.7866821289062 661.2750244140625 532.8800048828125 669.2083129882812 532.8800048828125 C 672.7616577148438 532.8800048828125 675.5516967773438 532.1166381835938 677.578369140625 530.5900268554688 C 679.60498046875 529.056640625 680.6183471679688 526.989990234375 680.6183471679688 524.3900146484375 C 680.6183471679688 521.7833251953125 679.5449829101562 519.7166748046875 677.3983154296875 518.1900024414062 C 675.2449951171875 516.6566772460938 670.9849853515625 515.106689453125 664.6183471679688 513.5399780273438 C 654.538330078125 511.1400146484375 647.1616821289062 508.01666259765625 642.4883422851562 504.16998291015625 C 637.8150024414062 500.33001708984375 635.4783325195312 494.2966613769531 635.4783325195312 486.07000732421875 C 635.4783325195312 477.84332275390625 638.4349975585938 471.5 644.3483276367188 467.0400085449219 C 650.2616577148438 462.5733337402344 657.6383666992188 460.3399963378906 666.4783325195312 460.3399963378906 C 672.2650146484375 460.3399963378906 678.0516967773438 461.3333435058594 683.8383178710938 463.32000732421875 C 689.625 465.29998779296875 694.6683349609375 468.1099853515625 698.9683227539062 471.75 L 689.1783447265625 485.8800048828125 C 681.6516723632812 480.17999267578125 673.8783569335938 477.33001708984375 665.8583374023438 477.33001708984375 ZM 753.0363159179688 479.05999755859375 L 753.0363159179688 549 L 733.6863403320312 549 L 733.6863403320312 479.05999755859375 L 709.1362915039062 479.05999755859375 L 709.1362915039062 462.32000732421875 L 777.5863037109375 462.32000732421875 L 777.5863037109375 479.05999755859375 L 753.0363159179688 479.05999755859375 ZM 814.6583251953125 526.6199951171875 C 814.6583251953125 526.6199951171875 815.4650268554688 527.6199951171875 817.078369140625 529.6199951171875 C 818.6917114257812 531.6266479492188 822.2250366210938 532.6300048828125 827.6783447265625 532.6300048828125 C 833.1383666992188 532.6300048828125 837.4583740234375 530.6266479492188 840.6383666992188 526.6199951171875 C 843.8250122070312 522.606689453125 845.4183349609375 517.1300048828125 845.4183349609375 510.19000244140625 L 845.4183349609375 462.32000732421875 L 864.7583618164062 462.32000732421875 L 864.7583618164062 510.80999755859375 C 864.7583618164062 523.3766479492188 861.2850341796875 533.0266723632812 854.33837890625 539.760009765625 C 847.3983154296875 546.5 838.5116577148438 549.8699951171875 827.6783447265625 549.8699951171875 C 816.8516845703125 549.8699951171875 807.9450073242188 546.47998046875 800.9583740234375 539.7000122070312 C 793.9716796875 532.9199829101562 790.4783325195312 523.2899780273438 790.4783325195312 510.80999755859375 L 790.4783325195312 462.32000732421875 L 809.828369140625 462.32000732421875 L 809.828369140625 510.19000244140625 C 809.828369140625 517.1300048828125 811.4383544921875 522.606689453125 814.6583251953125 526.6199951171875 ZM 915.4722900390625 462.32000732421875 C 930.9323120117188 462.32000732421875 942.795654296875 466.10333251953125 951.0623168945312 473.66998291015625 C 959.3289794921875 481.2366638183594 963.4622802734375 491.75665283203125 963.4622802734375 505.2300109863281 C 963.4622802734375 518.7033081054688 959.4323120117188 529.3666381835938 951.372314453125 537.219970703125 C 943.3123168945312 545.0733032226562 931.015625 549 914.4822998046875 549 L 884.84228515625 549 L 884.84228515625 462.32000732421875 L 915.4722900390625 462.32000732421875 M 916.4622802734375 531.8900146484375 C 925.3089599609375 531.8900146484375 932.1090087890625 529.6566772460938 936.8623046875 525.1900024414062 C 941.6156616210938 520.72998046875 943.9923095703125 514.239990234375 943.9923095703125 505.7200012207031 C 943.9923095703125 497.2066650390625 941.6156616210938 490.65667724609375 936.8623046875 486.07000732421875 C 932.1090087890625 481.48333740234375 924.815673828125 479.19000244140625 914.9822998046875 479.19000244140625 L 904.1923217773438 479.19000244140625 L 904.1923217773438 531.8900146484375 L 916.4622802734375 531.8900146484375 ZM 980.1983032226562 462.32000732421875 L 999.54833984375 462.32000732421875 L 999.54833984375 549 L 980.1983032226562 549 L 980.1983032226562 462.32000732421875 ZM 1087.2103271484375 505.16998291015625 C 1087.2103271484375 505.16998291015625 1087.2103271484375 503.2366638183594 1087.2103271484375 499.3699951171875 C 1087.2103271484375 495.5033264160156 1084.7303466796875 490.84332275390625 1079.770263671875 485.3900146484375 C 1074.810302734375 479.92999267578125 1068.713623046875 477.20001220703125 1061.4803466796875 477.20001220703125 C 1054.2469482421875 477.20001220703125 1048.1502685546875 479.92999267578125 1043.1903076171875 485.3900146484375 C 1038.2303466796875 490.84332275390625 1035.7503662109375 497.4366760253906 1035.7503662109375 505.16998291015625 C 1035.7503662109375 512.8966674804688 1038.2303466796875 519.4666748046875 1043.1903076171875 524.8800048828125 C 1048.1502685546875 530.2933349609375 1054.2469482421875 533 1061.4803466796875 533 C 1068.713623046875 533 1074.810302734375 530.2933349609375 1079.770263671875 524.8800048828125 C 1084.7303466796875 519.4666748046875 1087.2103271484375 512.8966674804688 1087.2103271484375 505.16998291015625 M 1093.790283203125 537.030029296875 C 1093.790283203125 537.030029296875 1091.5970458984375 539.1699829101562 1087.2103271484375 543.4500122070312 C 1082.830322265625 547.72998046875 1074.233642578125 549.8699951171875 1061.4202880859375 549.8699951171875 C 1048.60693359375 549.8699951171875 1037.8203125 545.5900268554688 1029.060302734375 537.030029296875 C 1020.2936401367188 528.4766845703125 1015.9103393554688 517.8333129882812 1015.9103393554688 505.1000061035156 C 1015.9103393554688 492.3733215332031 1020.2936401367188 481.7300109863281 1029.060302734375 473.16998291015625 C 1037.8203125 464.6166687011719 1048.60693359375 460.3399963378906 1061.4202880859375 460.3399963378906 C 1074.233642578125 460.3399963378906 1085.023681640625 464.6166687011719 1093.790283203125 473.16998291015625 C 1102.55029296875 481.7300109863281 1106.9302978515625 492.3733215332031 1106.9302978515625 505.1000061035156 C 1106.9302978515625 517.8333129882812 1102.55029296875 528.4766845703125 1093.790283203125 537.030029296875 Z" transform="matrix(0.9687188863754272, 0, 0, 0.9687188863754272, -285.83551025390625, -439.46356201171875)" style="fill: rgb(49, 49, 49); white-space: pre; color: rgb(49, 49, 49);"/></svg>