<?xml version="1.0"?>
<svg xmlns="http://www.w3.org/2000/svg" xmlns:xlink="http://www.w3.org/1999/xlink" version="1.1" id="Capa_1" x="0px" y="0px" viewBox="0 0 511.993 511.993" style="enable-background:new 0 0 511.993 511.993;" xml:space="preserve" width="512px" height="512px" class=""><g><circle style="fill:#FCEFED" cx="255.997" cy="255.997" r="255.997" data-original="#F7DC4D" class="" data-old_color="#F7DC4D"/><path style="fill:#FCEFED" d="M313.168,180.598L313.168,180.598c-61.172-30.586-140.981-5.418-161.614,49.633l-80.282-43.765  v139.067l186.444,186.444c139.974-0.92,253.264-114.165,254.26-254.121l-71.391-71.391l-73.661,40.155  C339.955,199.652,333.499,190.753,313.168,180.598z" data-original="#E5BF2B" class="" data-old_color="#E5BF2B"/><polygon style="fill:#6A2A8E" points="71.272,325.533 198.823,256 71.272,186.467 " data-original="#6A2A8E" class="" data-old_color="#6A2A8E"/><ellipse style="fill:#8427C1" cx="255.997" cy="255.997" rx="109.152" ry="88.502" data-original="#8427C1" class="" data-old_color="#8427C1"/><polygon style="fill:#4D246A" points="440.586,325.533 313.034,256 440.586,186.467 " data-original="#4D246A" class="active-path" data-old_color="#4D246A"/><path style="fill:#582677" d="M256,167.498v177.004c60.284,0,109.152-39.623,109.152-88.502S316.283,167.498,256,167.498z" data-original="#582677" class="" data-old_color="#582677"/><g>
	<path style="fill:#3E3E42" d="M149.978,277.101c3.558,11.792,10.025,22.658,18.757,32.066l73.594-140.98   c-14.974,1.517-29.002,5.496-41.456,11.418L149.978,277.101z" data-original="#3E3E42" class="" data-old_color="#3E3E42"/>
	<path style="fill:#3E3E42" d="M198.925,331.448c9.219,4.594,19.342,8.111,30.105,10.328l84.138-161.179   c-9.213-4.602-19.332-8.127-30.092-10.354L198.925,331.448z" data-original="#3E3E42" class="" data-old_color="#3E3E42"/>
</g><g>
	<path style="fill:#2D2E30" d="M283.076,170.244L256,222.112v67.999l57.167-109.513   C303.664,175.851,293.437,172.388,283.076,170.244z" data-original="#2D2E30" class="" data-old_color="#2D2E30"/>
	<path style="fill:#2D2E30" d="M307.145,334.198l53.702-102.875c-4.028-11.271-10.746-21.613-19.552-30.544l-74.813,143.314   C281.064,342.967,294.808,339.514,307.145,334.198z" data-original="#2D2E30" class="" data-old_color="#2D2E30"/>
</g></g> </svg>
