<?xml version="1.0"?>
<svg xmlns="http://www.w3.org/2000/svg" xmlns:xlink="http://www.w3.org/1999/xlink" version="1.1" id="Layer_1" x="0px" y="0px" viewBox="0 0 512 512" style="enable-background:new 0 0 512 512;" xml:space="preserve" width="512px" height="512px" class=""><g><circle style="fill:#71BEB4" cx="256" cy="256" r="256" data-original="#E05B49" class="" data-old_color="#E05B49"/><path style="fill:#71BEB4" d="M508.043,300.624L359.733,152.267c-57.28-57.28-150.187-57.28-207.467,0  c-57.227,57.28-57.227,150.187,0,207.467l148.357,148.309C406.224,489.472,489.467,406.224,508.043,300.624z" data-original="#000000" class="" data-old_color="#000000"/><path style="fill:#000000" d="M256,109.333c-81.003,0-146.667,65.664-146.667,146.667S174.997,402.667,256,402.667  S402.667,337.003,402.667,256S337.003,109.333,256,109.333z M256,376.8c-66.72,0-120.8-54.085-120.8-120.8S189.285,135.2,256,135.2  S376.8,189.285,376.8,256S322.715,376.8,256,376.8z" data-original="#64798A" class="" data-old_color="#64798A"/><path style="fill:#000000" d="M256,135.2c-66.72,0-120.8,54.085-120.8,120.8S189.285,376.8,256,376.8S376.8,322.715,376.8,256  S322.715,135.2,256,135.2z M256,372.896c-64.56,0-116.896-52.336-116.896-116.896S191.44,139.109,256,139.109  S372.891,191.445,372.891,256S320.56,372.896,256,372.896z" data-original="#3A556A" class="" data-old_color="#3A556A"/><circle style="fill:#F3F3F3" cx="256" cy="256" r="116.891" data-original="#EBF0F3" class="active-path" data-old_color="#EBF0F3"/><g>
	<circle style="fill:#000000" cx="360" cy="256" r="5.44" data-original="#E56353" class="" data-old_color="#E56353"/>
	<circle style="fill:#000000" cx="256" cy="151.968" r="5.44" data-original="#E56353" class="" data-old_color="#E56353"/>
	<circle style="fill:#000000" cx="256" cy="360.053" r="5.44" data-original="#E56353" class="" data-old_color="#E56353"/>
	<circle style="fill:#000000" cx="151.968" cy="256" r="5.44" data-original="#E56353" class="" data-old_color="#E56353"/>
</g><polygon style="fill:#000000" points="316.485,253.248 270.091,252.011 260.224,251.749 260.224,260.251 270.091,259.989   316.485,258.752 318.811,256 " data-original="#3A556A" class="" data-old_color="#3A556A"/><path style="fill:#323232" d="M270.091,252.011l-9.867-0.261v8.507l9.867-0.261c0.363-1.28,0.619-2.597,0.619-3.989  C270.709,254.613,270.453,253.291,270.091,252.011z" data-original="#2F4859" class="" data-old_color="#2F4859"/><g>
	<polygon style="fill:#000000" points="260.704,248.885 251.291,248.885 253.248,175.584 256,173.253 258.752,175.584  " data-original="#64798A" class="" data-old_color="#64798A"/>
	<circle style="fill:#000000" cx="256" cy="256" r="9.376" data-original="#64798A" class="" data-old_color="#64798A"/>
</g><polygon style="fill:#000000" points="251.749,262.187 332.165,181.776 330.277,179.888 249.867,260.299 248.923,259.36   228.197,280.08 231.968,283.851 252.693,263.131 " data-original="#E56353" class="" data-old_color="#E56353"/><circle style="fill:#000000" cx="256" cy="256" r="5.445" data-original="#3A556A" class="" data-old_color="#3A556A"/></g> </svg>
