<?xml version="1.0"?>
<svg xmlns="http://www.w3.org/2000/svg" xmlns:xlink="http://www.w3.org/1999/xlink" version="1.1" id="Layer_1" x="0px" y="0px" viewBox="0 0 491.52 491.52" style="enable-background:new 0 0 491.52 491.52;" xml:space="preserve" width="512px" height="512px" class=""><g><circle style="fill:#FCA6A6" cx="245.76" cy="245.76" r="245.76" data-original="#334D5C" class="" data-old_color="#334D5C"/><path style="fill:#FCA6A6" d="M295.322,143.984h12.544v24.166c-1.024-0.051-2.048-0.154-3.123-0.154  c-7.373,0-14.336,1.792-20.531,4.864l-6.349-6.4l-0.819-0.819c-8.653-8.55-20.531-13.875-33.69-13.875  c-19.712,0-36.608,11.93-43.981,28.928c-6.81-3.738-14.592-5.888-22.938-5.888c-26.214,0-47.514,21.248-47.514,47.514  c0,1.28,0.102,2.56,0.205,3.84c-14.438,8.294-24.166,23.808-24.166,41.626c0,11.776,4.25,22.579,11.315,30.874l5.12,5.171  l0.307,0.256l15.462,15.462v27.955h-12.544l35.789,39.066l104.162,104.162C385.28,481.584,481.574,385.296,490.73,264.59  L331.11,104.97L295.322,143.984z" data-original="#000000" class="" data-old_color="#000000"/><path style="fill:#FFFFFF" d="M351.082,210.397c-2.11-23.754-22.036-42.384-46.339-42.384c-7.721,0-14.987,1.91-21.398,5.237  c-8.589-12.939-23.277-21.478-39.971-21.478c-19.719,0-36.642,11.909-44.012,28.92c-6.796-3.751-14.602-5.898-22.914-5.898  c-26.236,0-47.504,21.269-47.504,47.505c0,1.309,0.092,2.595,0.196,3.877c-14.433,8.266-24.18,23.788-24.18,41.613  c0,24.563,18.475,44.781,42.282,47.593c10.923,14.757,28.403,24.367,48.173,24.367c16.176,0,30.827-6.435,41.613-16.848  c10.785,10.413,25.437,16.848,41.613,16.848c24.369,0,45.299-14.562,54.678-35.438c1.736,0.19,3.495,0.306,5.282,0.306  c26.487,0,47.959-21.472,47.959-47.959C386.56,234.495,371.507,215.898,351.082,210.397z" data-original="#EBF0F3" class="active-path" data-old_color="#EBF0F3"/><g>
	<path style="fill:#FFFFFF;" d="M123.992,245.3l5.645-3.235l-0.295-3.607c-2.98,2.4-5.525,5.231-7.631,8.358   C122.467,246.306,123.192,245.757,123.992,245.3z" data-original="#FFFFFF" class=""/>
	<path style="fill:#FFFFFF;" d="M166.207,195.275c6.28,0,12.49,1.597,17.965,4.622l9.865,5.448l4.48-10.343   c0.361-0.834,0.835-1.59,1.25-2.387l-5.355-2.957c-5.475-3.025-11.685-4.622-17.965-4.622c-12.887,0-24.262,6.578-30.957,16.548   C151.418,197.603,158.545,195.275,166.207,195.275z" data-original="#FFFFFF" class=""/>
	<path style="fill:#FFFFFF;" d="M316.787,303.565l-3.05,6.792c-1.499,3.338-3.438,6.369-5.566,9.231   c5.518-4.1,10.179-9.325,13.649-15.475L316.787,303.565z" data-original="#FFFFFF" class=""/>
	<path style="fill:#FFFFFF;" d="M348.417,220.284l-6.9-1.86l-0.635-7.123c-1.675-18.84-17.21-33.05-36.14-33.05   c-5.845,0-11.455,1.375-16.675,4.085l-8.165,4.238l-5.085-7.663c-7.025-10.583-18.78-16.9-31.445-16.9   c-12.641,0-24.194,6.361-31.132,16.579c6.066-4.043,13.288-6.339,20.892-6.339c12.665,0,24.42,6.318,31.445,16.9l5.085,7.663   l8.165-4.238c5.22-2.71,10.83-4.085,16.675-4.085c18.93,0,34.465,14.21,36.14,33.05l0.635,7.123l6.9,1.86   c16.43,4.425,27.905,19.38,27.905,36.372c0,7.789-2.372,15.031-6.432,21.047c10.05-6.783,16.672-18.275,16.672-31.287   C376.322,239.665,364.847,224.71,348.417,220.284z" data-original="#FFFFFF" class=""/>
</g><polygon style="fill:#000000" points="366.923,144.008 331.121,104.96 295.32,144.008 307.888,144.008 307.888,198.745   354.355,198.745 354.355,144.008 " data-original="#E56353" class="" data-old_color="#E56353"/><polygon style="fill:#000000" points="124.597,347.512 160.399,386.56 196.2,347.512 183.632,347.512 183.632,292.775   137.165,292.775 137.165,347.512 " data-original="#44C4A1" class="" data-old_color="#44C4A1"/></g> </svg>
