<?xml version="1.0"?>
<svg xmlns="http://www.w3.org/2000/svg" xmlns:xlink="http://www.w3.org/1999/xlink" version="1.1" id="Capa_1" x="0px" y="0px" viewBox="0 0 512 512" style="enable-background:new 0 0 512 512;" xml:space="preserve" width="512px" height="512px" class=""><g><circle style="fill:#FCA6A6" cx="256" cy="256" r="256" data-original="#FF432E" class="" data-old_color="#FF432E"/><path style="fill:#FCA6A6" d="M510.079,287.419L356.117,133.458l-236.9,264.16l113.3,113.3C240.253,511.621,248.082,512,256,512  C386.747,512,494.588,413.98,510.079,287.419z" data-original="#DB0404" class="" data-old_color="#DB0404"/><path style="fill:#585858" d="M367.16,408H144.84c-20.346,0-36.84-16.494-36.84-36.84V213L256,93l148,120v158.16  C404,391.506,387.506,408,367.16,408z" data-original="#FFD400" class="" data-old_color="#FFD400"/><path style="fill:#585858" d="M256,93l-0.839,0.348L256.331,408H367.16c20.346,0,36.84-16.494,36.84-36.84V213L256,93z" data-original="#FFB000" class="" data-old_color="#FFB000"/><polygon style="fill:#050505" points="404,213 256,318 108,213 256,93 " data-original="#4A7AFF" class="" data-old_color="#4A7AFF"/><polygon style="fill:#000000" points="255.571,317.696 256,318 404,213 256,93 " data-original="#2864F0" class="" data-old_color="#2864F0"/><g>
	<polygon style="fill:#FFFFFF;" points="297.298,74.639 155.883,74.639 155.883,246.971 256,318 356.117,246.971 356.117,133.458     " data-original="#FFFFFF" class=""/>
	<polygon style="fill:#FFFFFF;" points="297.298,74.639 155.883,74.639 155.883,246.971 256,318 356.117,246.971 356.117,133.458     " data-original="#FFFFFF" class=""/>
</g><polygon style="fill:#FFFFFF" points="297.298,74.639 256,74.639 256,317.696 256,318 356.117,246.971 356.117,133.458 " data-original="#F2F6FC" class="active-path" data-old_color="#F2F6FC"/><g>
	<polygon style="fill:#B5B6B8" points="297.298,133.458 356.117,133.458 297.298,74.639  " data-original="#DCE1EB" class="" data-old_color="#DCE1EB"/>
	<rect x="182.79" y="154.99" style="fill:#B5B6B8" width="146.42" height="13.14" data-original="#DCE1EB" class="" data-old_color="#DCE1EB"/>
</g><rect x="255.57" y="154.99" style="fill:#B6B6B6" width="73.64" height="13.14" data-original="#CDD2E1" class="" data-old_color="#CDD2E1"/><rect x="182.79" y="185.96" style="fill:#B5B6B8" width="146.42" height="13.14" data-original="#DCE1EB" class="" data-old_color="#DCE1EB"/><rect x="255.57" y="185.96" style="fill:#B6B6B6" width="73.64" height="13.14" data-original="#CDD2E1" class="" data-old_color="#CDD2E1"/><rect x="182.79" y="216.94" style="fill:#B5B6B8" width="146.42" height="13.14" data-original="#DCE1EB" class="" data-old_color="#DCE1EB"/><rect x="255.57" y="216.94" style="fill:#B6B6B6" width="73.64" height="13.14" data-original="#CDD2E1" class="" data-old_color="#CDD2E1"/><rect x="182.79" y="247.91" style="fill:#B5B6B8" width="146.42" height="13.14" data-original="#DCE1EB" class="" data-old_color="#DCE1EB"/><rect x="255.57" y="247.91" style="fill:#B6B6B6" width="73.64" height="13.14" data-original="#CDD2E1" class="" data-old_color="#CDD2E1"/></g> </svg>
