<?xml version="1.0"?>
<svg xmlns="http://www.w3.org/2000/svg" xmlns:xlink="http://www.w3.org/1999/xlink" version="1.1" id="Layer_1" x="0px" y="0px" viewBox="0 0 512 512" style="enable-background:new 0 0 512 512;" xml:space="preserve" width="512px" height="512px" class=""><g><circle style="fill:#71BEB4" cx="255.996" cy="255.996" r="255.996" data-original="#FFDF47" class="" data-old_color="#FFDF47"/><path style="fill:#71BEB4" d="M512,256.001c0-26.605-4.061-52.261-11.593-76.384L393.276,72.485  c-11.098-11.097-29.256-11.097-40.353,0L130.438,294.97L84.364,427.636l57.608,57.608C176.31,502.358,215.028,512,256.001,512  C397.385,512,512,397.385,512,256.001z" data-original="#FEC000" class="" data-old_color="#FEC000"/><path style="fill:#000000" d="M400.804,197.788l-86.592-86.592l38.711-38.711c11.097-11.097,29.256-11.097,40.353,0l46.238,46.238  c11.097,11.097,11.097,29.256,0,40.353L400.804,197.788z" data-original="#FF0335" class="" data-old_color="#FF0335"/><path style="fill:#000000" d="M439.17,159.422c11.287-11.287,11.287-29.756,0-41.043l-22.774-22.774l-58.888,58.888l43.296,43.296  L439.17,159.422z" data-original="#C2001B" class="" data-old_color="#C2001B"/><rect x="288.796" y="145.226" transform="matrix(-0.7071 -0.7071 0.7071 -0.7071 483.0012 524.0056)" style="fill:#D4D4D4" width="122.459" height="33.488" data-original="#FFFFFF" class="" data-old_color="#FFFFFF"/><rect x="341.061" y="166.878" transform="matrix(-0.7071 -0.7071 0.7071 -0.7071 504.6495 576.2772)" style="fill:#C8C8C8" width="61.23" height="33.488" data-original="#C8C6CC" class="active-path" data-old_color="#C8C6CC"/><polygon style="fill:#000000" points="297.372,128.037 130.438,294.97 84.364,427.636 217.03,381.562 383.963,214.627 " data-original="#E67500" class="" data-old_color="#E67500"/><polygon style="fill:#000000" points="383.963,214.627 340.667,171.333 84.364,427.636 217.03,381.562 " data-original="#9A4C00" class="" data-old_color="#9A4C00"/><polygon style="fill:#FFC473;" points="84.364,427.636 217.03,381.562 130.438,294.97 " data-original="#FFC473" class=""/><polygon style="fill:#FFAA20;" points="173.734,338.266 84.364,427.636 217.03,381.562 " data-original="#FFAA20" class=""/><polygon style="fill:#161617" points="142.558,407.426 104.574,369.442 84.364,427.636 " data-original="#57555C" class="" data-old_color="#57555C"/><polygon style="fill:#1A1A1B" points="123.566,388.434 84.364,427.636 142.558,407.426 " data-original="#171719" class="" data-old_color="#171719"/></g> </svg>
