<svg width="19" height="27" viewBox="0 0 19 27" fill="none" xmlns="http://www.w3.org/2000/svg">
<path d="M17.6386 11.8159H17.5996C16.851 11.8159 16.221 12.4521 16.221 13.2698V14.4033C16.221 14.6291 16.0376 14.8124 15.8119 14.8124C15.5858 14.8124 15.4028 14.6291 15.4028 14.4033V12.3103C15.4028 11.4926 14.809 10.8274 14.0606 10.8274C13.3082 10.8274 12.7144 11.4926 12.7144 12.3103V14.5286C12.7144 14.7546 12.5311 14.9377 12.3053 14.9377C12.0793 14.9377 11.8962 14.7546 11.8962 14.5286V11.7013C11.8962 10.8837 11.2789 10.2379 10.5306 10.2379H10.489C9.75942 10.2379 9.14943 10.8504 9.14943 11.6396V14.8234C9.14943 15.0494 8.96611 15.2324 8.74033 15.2324C8.51432 15.2324 8.33123 15.0494 8.33123 14.8234V11.7318C8.33123 11.7218 8.33009 11.7113 8.33009 11.701C8.33009 11.6759 8.33123 11.6508 8.33123 11.6259V4.39801C8.33123 3.58027 7.71416 2.91526 6.96606 2.91526C6.21772 2.91526 5.60088 3.58004 5.60019 4.3971L5.59198 16.383C5.59175 16.5558 5.48331 16.7099 5.32054 16.7682C5.158 16.8264 4.97628 16.7761 4.8667 16.6426L3.43554 14.9005C3.05818 14.4277 2.50115 14.1332 1.89778 14.0873C1.30719 14.0483 0.726877 14.2565 0.295865 14.6622C0.290842 14.6667 0.285591 14.6722 0.280112 14.6768L0 14.911L4.96189 24.4465C5.74516 25.9516 7.22631 26.894 8.82685 26.894H14.5627C17.0035 26.894 18.9913 24.7465 18.9938 22.1159C18.9951 20.7228 18.9965 19.678 18.9977 18.8362C19.0006 16.5862 19.0015 15.7587 18.9958 13.2801C18.994 12.4647 18.3851 11.8159 17.6386 11.8159Z" fill="white"/>
<path d="M3.24384 4.54116C3.46985 4.54116 3.65294 4.35807 3.65294 4.13206C3.64814 2.95043 4.27571 1.85623 5.29823 1.26404C6.32074 0.671859 7.58205 0.671859 8.60456 1.26404C9.62707 1.85623 10.2546 2.95043 10.2496 4.13206C10.2496 4.35807 10.4329 4.54116 10.6587 4.54116C10.8847 4.54116 11.0678 4.35807 11.0678 4.13206C11.0735 2.65776 10.29 1.29281 9.01411 0.554061C7.7382 -0.184687 6.16459 -0.184687 4.88867 0.554061C3.61276 1.29281 2.82927 2.65776 2.83475 4.13206C2.83475 4.35807 3.01806 4.54116 3.24384 4.54116Z" fill="white"/>
</svg>
